<?xml version="1.0" encoding="utf-8"?>
<!-- Generator: Adobe Illustrator 24.0.1, SVG Export Plug-In . SVG Version: 6.00 Build 0)  -->
<svg version="1.1" id="Layer_1" xmlns="http://www.w3.org/2000/svg" xmlns:xlink="http://www.w3.org/1999/xlink" x="0px" y="0px"
	 viewBox="0 0 360.5 202" style="enable-background:new 0 0 360.5 202;" xml:space="preserve">
<style type="text/css">
	.st0{fill:#FFFFFF;}
	.st1{fill:#D8D8D8;}
	.st2{fill:#4472C3;}
	.st3{fill:#EC7D31;}
	.st4{clip-path:url(#SVGID_2_);fill:#595959;}
	.st5{clip-path:url(#SVGID_4_);fill:#595959;}
	.st6{clip-path:url(#SVGID_6_);fill:#595959;}
</style>
<rect x="0.5" class="st0" width="360" height="202"/>
<path class="st1" d="M45.67,10.5h303.67v1H45.67V10.5z M45.67,34.49h303.67v1H45.67V34.49z M45.67,58.48h303.67v1H45.67V58.48z
	 M45.67,82.46h303.67v1H45.67V82.46z M45.67,107.45h303.67v1H45.67V107.45z M45.67,131.44h303.67v1H45.67V131.44z"/>
<path class="st2" d="M311,155.93h12V61h-12V155.93z M261,155.93h11V60h-11V155.93z M109,155.93h11V18h-11V155.93z M58,155.93h11V12
	H58V155.93z M210,155.93h11V12h-11V155.93z M159,155.93h12V11h-12V155.93z"/>
<path class="st3" d="M275,155.93h11V61h-11V155.93z M326,155.93h11V61h-11V155.93z M123,155.93h12V32h-12V155.93z M224,155.93h12V27
	h-12V155.93z M174,155.93h11V17h-11V155.93z M73,155.93h11V14H73V155.93z"/>
<rect x="45.67" y="155.43" class="st1" width="303.67" height="1"/>
<g>
	<defs>
		<rect id="SVGID_1_" width="360" height="202"/>
	</defs>
	<clipPath id="SVGID_2_">
		<use xlink:href="#SVGID_1_"  style="overflow:visible;"/>
	</clipPath>
	<path class="st4" d="M36.22,156.8c-0.01,0.2-0.04,0.38-0.07,0.54s-0.08,0.32-0.14,0.46s-0.13,0.26-0.22,0.35
		c-0.09,0.1-0.2,0.17-0.32,0.23c-0.12,0.05-0.27,0.08-0.43,0.08c-0.21,0-0.39-0.04-0.54-0.13c-0.15-0.09-0.27-0.22-0.36-0.41
		c-0.1-0.19-0.16-0.43-0.21-0.73c-0.04-0.3-0.07-0.66-0.07-1.08c0-0.32,0.02-0.61,0.05-0.89c0.03-0.28,0.09-0.52,0.18-0.72
		c0.09-0.21,0.21-0.37,0.37-0.48c0.16-0.12,0.36-0.18,0.61-0.18c0.14,0,0.27,0.02,0.38,0.05c0.11,0.04,0.21,0.1,0.3,0.18
		c0.09,0.08,0.16,0.18,0.23,0.31c0.06,0.12,0.11,0.27,0.15,0.45c0.04,0.17,0.07,0.37,0.09,0.6c0.02,0.23,0.03,0.48,0.03,0.76
		C36.24,156.41,36.23,156.61,36.22,156.8 M36.92,154.9c-0.06-0.36-0.17-0.67-0.32-0.91c-0.15-0.25-0.35-0.44-0.59-0.56
		c-0.24-0.13-0.55-0.19-0.91-0.19c-0.38,0-0.69,0.07-0.95,0.21c-0.26,0.14-0.47,0.34-0.62,0.6c-0.16,0.26-0.27,0.57-0.34,0.93
		s-0.11,0.76-0.11,1.19c0,0.47,0.03,0.88,0.1,1.25c0.06,0.36,0.17,0.67,0.32,0.91c0.15,0.25,0.35,0.43,0.59,0.56
		c0.24,0.13,0.55,0.19,0.9,0.19c0.38,0,0.7-0.07,0.95-0.21c0.26-0.14,0.47-0.34,0.63-0.6c0.16-0.26,0.27-0.57,0.34-0.93
		c0.07-0.36,0.1-0.76,0.1-1.2C37.01,155.67,36.98,155.26,36.92,154.9"/>
	<path class="st4" d="M36.66,131.8c-0.01,0.2-0.04,0.38-0.07,0.54c-0.04,0.17-0.08,0.32-0.14,0.46c-0.06,0.14-0.13,0.26-0.22,0.35
		c-0.09,0.1-0.2,0.17-0.32,0.23c-0.12,0.05-0.27,0.08-0.43,0.08c-0.21,0-0.39-0.04-0.54-0.13c-0.15-0.08-0.27-0.22-0.37-0.41
		c-0.1-0.19-0.17-0.43-0.21-0.73c-0.04-0.3-0.06-0.66-0.06-1.08c0-0.32,0.02-0.61,0.05-0.89c0.03-0.28,0.09-0.52,0.18-0.72
		c0.09-0.2,0.21-0.37,0.37-0.48c0.15-0.12,0.36-0.18,0.61-0.18c0.14,0,0.27,0.02,0.38,0.06c0.11,0.04,0.21,0.1,0.3,0.17
		c0.09,0.08,0.16,0.18,0.23,0.31c0.06,0.12,0.11,0.27,0.15,0.45c0.04,0.17,0.07,0.37,0.09,0.6c0.02,0.23,0.03,0.48,0.03,0.76
		C36.68,131.41,36.67,131.61,36.66,131.8 M37.36,129.9c-0.06-0.36-0.17-0.67-0.32-0.91c-0.15-0.25-0.35-0.43-0.59-0.56
		c-0.25-0.13-0.55-0.19-0.91-0.19c-0.38,0-0.69,0.07-0.95,0.21c-0.26,0.14-0.47,0.34-0.62,0.6c-0.16,0.26-0.27,0.57-0.34,0.93
		c-0.07,0.36-0.11,0.76-0.11,1.19c0,0.47,0.03,0.88,0.1,1.25c0.06,0.36,0.17,0.67,0.32,0.91c0.15,0.25,0.35,0.43,0.59,0.56
		c0.25,0.13,0.55,0.19,0.9,0.19c0.38,0,0.7-0.07,0.95-0.21c0.26-0.14,0.47-0.34,0.63-0.6c0.16-0.26,0.27-0.57,0.34-0.93
		c0.07-0.36,0.1-0.76,0.1-1.2C37.45,130.67,37.42,130.26,37.36,129.9 M32.27,133.56l-0.03-0.09l-0.05-0.06l-0.07-0.02h-1.03v-5
		l-0.01-0.05l-0.05-0.04l-0.11-0.02l-0.18-0.01l-0.13,0l-0.09,0.01l-0.07,0.02l-0.04,0.02l-1.31,0.84l-0.06,0.05L29,129.28
		l-0.02,0.09l-0.01,0.13l0.01,0.17l0.04,0.09l0.08,0.02l0.13-0.05l1.1-0.65v4.32h-1.19l-0.06,0.02l-0.05,0.06L29,133.56l-0.01,0.14
		l0.01,0.14l0.04,0.09l0.05,0.05l0.06,0.02h2.97l0.06-0.02l0.05-0.05l0.03-0.09l0.01-0.14L32.27,133.56z"/>
	<path class="st4" d="M36.66,107.81c-0.01,0.19-0.04,0.38-0.07,0.54c-0.04,0.17-0.08,0.32-0.14,0.46c-0.06,0.14-0.13,0.26-0.22,0.35
		c-0.09,0.1-0.2,0.17-0.32,0.23c-0.12,0.05-0.27,0.08-0.43,0.08c-0.21,0-0.39-0.04-0.54-0.13c-0.15-0.08-0.27-0.22-0.36-0.41
		c-0.1-0.19-0.16-0.43-0.21-0.73c-0.04-0.3-0.07-0.66-0.07-1.08c0-0.32,0.02-0.61,0.05-0.89c0.03-0.27,0.09-0.52,0.18-0.72
		c0.09-0.2,0.21-0.37,0.37-0.48c0.16-0.12,0.36-0.18,0.61-0.18c0.14,0,0.27,0.02,0.38,0.05c0.11,0.04,0.21,0.1,0.3,0.18
		c0.09,0.08,0.16,0.18,0.23,0.31c0.06,0.12,0.12,0.27,0.15,0.45c0.04,0.17,0.07,0.37,0.09,0.6c0.02,0.23,0.03,0.48,0.03,0.76
		C36.68,107.41,36.67,107.61,36.66,107.81 M37.36,105.9c-0.06-0.36-0.17-0.67-0.32-0.91c-0.15-0.25-0.35-0.43-0.59-0.56
		c-0.24-0.13-0.55-0.19-0.91-0.19c-0.38,0-0.69,0.07-0.95,0.21c-0.26,0.14-0.47,0.34-0.62,0.6c-0.16,0.26-0.27,0.57-0.34,0.93
		c-0.07,0.36-0.11,0.76-0.11,1.19c0,0.47,0.03,0.88,0.1,1.25c0.06,0.36,0.17,0.67,0.32,0.91c0.15,0.25,0.35,0.44,0.59,0.56
		c0.25,0.13,0.55,0.19,0.9,0.19c0.38,0,0.69-0.07,0.95-0.21c0.26-0.14,0.47-0.34,0.63-0.6c0.16-0.26,0.27-0.57,0.34-0.93
		c0.07-0.36,0.1-0.76,0.1-1.19C37.45,106.67,37.42,106.26,37.36,105.9 M32.25,109.54l-0.04-0.1l-0.06-0.06l-0.07-0.02h-2.47
		l0.9-0.94c0.33-0.33,0.59-0.63,0.78-0.89c0.2-0.26,0.35-0.49,0.45-0.7c0.1-0.21,0.17-0.4,0.2-0.58c0.03-0.18,0.05-0.36,0.05-0.54
		c0-0.2-0.03-0.39-0.1-0.57c-0.07-0.18-0.17-0.34-0.31-0.47c-0.14-0.14-0.31-0.24-0.51-0.32c-0.21-0.08-0.45-0.12-0.72-0.12
		c-0.17,0-0.34,0.02-0.49,0.05c-0.16,0.04-0.3,0.08-0.43,0.13c-0.13,0.05-0.24,0.1-0.33,0.16l-0.18,0.12l-0.07,0.08l-0.03,0.07
		l-0.02,0.08l0,0.11l0.01,0.16l0.03,0.11l0.04,0.06l0.06,0.02l0.17-0.08c0.07-0.05,0.17-0.1,0.28-0.16
		c0.11-0.06,0.24-0.11,0.39-0.16c0.15-0.05,0.31-0.07,0.5-0.07c0.16,0,0.3,0.02,0.42,0.07c0.12,0.05,0.22,0.12,0.3,0.2
		c0.08,0.09,0.14,0.18,0.18,0.3c0.04,0.11,0.06,0.23,0.06,0.36c0,0.13-0.01,0.26-0.04,0.4c-0.03,0.14-0.08,0.3-0.17,0.48
		c-0.09,0.18-0.21,0.37-0.37,0.58c-0.16,0.21-0.37,0.46-0.63,0.73l-1.14,1.17l-0.09,0.11l-0.06,0.1l-0.03,0.12l-0.01,0.15l0.02,0.16
		l0.05,0.1l0.08,0.05l0.11,0.02h3.14l0.07-0.02l0.05-0.06l0.03-0.1l0.01-0.14L32.25,109.54z"/>
	<path class="st4" d="M36.66,83.8c-0.01,0.2-0.04,0.38-0.07,0.54c-0.04,0.17-0.08,0.32-0.14,0.46c-0.06,0.14-0.13,0.26-0.22,0.35
		c-0.09,0.1-0.2,0.17-0.32,0.23c-0.12,0.05-0.27,0.08-0.43,0.08c-0.21,0-0.39-0.04-0.54-0.13c-0.15-0.08-0.27-0.22-0.36-0.41
		c-0.1-0.19-0.17-0.43-0.21-0.73c-0.04-0.3-0.07-0.66-0.07-1.08c0-0.32,0.02-0.61,0.05-0.89c0.03-0.28,0.09-0.52,0.18-0.72
		c0.09-0.2,0.21-0.37,0.37-0.48c0.15-0.12,0.36-0.18,0.61-0.18c0.14,0,0.27,0.02,0.38,0.06c0.11,0.04,0.21,0.09,0.3,0.17
		c0.09,0.08,0.16,0.18,0.23,0.31c0.06,0.12,0.11,0.27,0.15,0.45c0.04,0.17,0.07,0.37,0.09,0.6c0.02,0.22,0.03,0.48,0.03,0.76
		C36.68,83.41,36.67,83.61,36.66,83.8 M37.36,81.9c-0.06-0.36-0.17-0.67-0.32-0.91c-0.15-0.25-0.35-0.43-0.59-0.56
		c-0.24-0.13-0.55-0.19-0.91-0.19c-0.38,0-0.69,0.07-0.95,0.21c-0.26,0.14-0.46,0.34-0.62,0.6c-0.16,0.26-0.27,0.57-0.34,0.93
		c-0.07,0.36-0.11,0.76-0.11,1.19c0,0.47,0.03,0.88,0.1,1.25c0.06,0.36,0.17,0.67,0.32,0.91c0.15,0.25,0.35,0.43,0.59,0.56
		c0.24,0.13,0.55,0.19,0.9,0.19c0.38,0,0.7-0.07,0.95-0.21c0.26-0.14,0.47-0.34,0.63-0.6c0.16-0.26,0.27-0.57,0.34-0.93
		s0.1-0.76,0.1-1.2C37.45,82.67,37.42,82.26,37.36,81.9 M32.12,83.87c-0.07-0.16-0.16-0.29-0.28-0.41
		c-0.12-0.12-0.26-0.21-0.42-0.29c-0.16-0.08-0.34-0.13-0.54-0.15v-0.01c0.17-0.03,0.33-0.09,0.46-0.17
		c0.13-0.08,0.24-0.18,0.33-0.3c0.09-0.12,0.16-0.25,0.21-0.41c0.05-0.15,0.07-0.32,0.07-0.5c0-0.21-0.03-0.4-0.1-0.57
		c-0.07-0.17-0.16-0.32-0.3-0.44c-0.13-0.12-0.3-0.22-0.5-0.29c-0.2-0.07-0.43-0.1-0.69-0.1c-0.19,0-0.36,0.02-0.53,0.05
		c-0.16,0.03-0.31,0.08-0.43,0.13c-0.12,0.05-0.23,0.1-0.31,0.16l-0.17,0.12l-0.06,0.07l-0.03,0.07l-0.02,0.09l-0.01,0.12l0.01,0.16
		l0.02,0.09l0.04,0.04l0.06,0.01l0.15-0.08c0.07-0.05,0.17-0.11,0.28-0.16c0.11-0.06,0.24-0.11,0.38-0.16
		c0.14-0.05,0.3-0.08,0.47-0.08c0.16,0,0.29,0.02,0.41,0.07c0.12,0.05,0.22,0.11,0.29,0.19c0.08,0.08,0.13,0.17,0.17,0.28
		c0.04,0.11,0.06,0.22,0.06,0.34c0,0.16-0.03,0.31-0.09,0.44c-0.06,0.13-0.14,0.24-0.25,0.34c-0.11,0.09-0.24,0.17-0.39,0.22
		s-0.33,0.08-0.52,0.08h-0.5l-0.07,0.01l-0.06,0.05l-0.04,0.09l-0.01,0.14l0.01,0.15l0.04,0.09l0.06,0.05l0.07,0.02h0.56
		c0.23,0,0.44,0.02,0.62,0.08c0.18,0.05,0.34,0.12,0.46,0.21c0.12,0.09,0.22,0.21,0.29,0.33c0.07,0.13,0.1,0.27,0.1,0.44
		c0,0.15-0.03,0.28-0.08,0.41c-0.05,0.12-0.13,0.23-0.23,0.32s-0.23,0.16-0.38,0.21c-0.15,0.05-0.32,0.08-0.52,0.08
		c-0.2,0-0.39-0.02-0.56-0.07c-0.17-0.05-0.31-0.1-0.44-0.15c-0.12-0.05-0.23-0.1-0.31-0.15l-0.16-0.07l-0.09,0.06
		c-0.02,0.04-0.03,0.11-0.03,0.22l0.01,0.16l0.02,0.11l0.03,0.07l0.05,0.06l0.16,0.1c0.08,0.04,0.19,0.09,0.32,0.13
		c0.13,0.04,0.28,0.08,0.44,0.11c0.17,0.03,0.34,0.05,0.53,0.05c0.31,0,0.59-0.04,0.84-0.12c0.25-0.08,0.46-0.2,0.63-0.35
		c0.17-0.15,0.3-0.33,0.39-0.54c0.09-0.21,0.14-0.44,0.14-0.7C32.22,84.2,32.19,84.03,32.12,83.87"/>
	<path class="st4" d="M36.66,59.8c-0.01,0.2-0.04,0.38-0.07,0.54c-0.04,0.17-0.08,0.32-0.14,0.46c-0.06,0.14-0.13,0.26-0.22,0.35
		c-0.09,0.1-0.2,0.17-0.32,0.23c-0.12,0.05-0.27,0.08-0.43,0.08c-0.21,0-0.39-0.04-0.54-0.13c-0.15-0.09-0.27-0.22-0.37-0.41
		c-0.09-0.19-0.17-0.43-0.21-0.73c-0.04-0.3-0.07-0.66-0.07-1.08c0-0.32,0.02-0.61,0.05-0.89c0.03-0.28,0.09-0.52,0.18-0.72
		c0.09-0.21,0.21-0.37,0.37-0.48c0.15-0.12,0.36-0.18,0.61-0.18c0.14,0,0.27,0.02,0.38,0.05c0.11,0.04,0.21,0.1,0.3,0.18
		c0.09,0.08,0.16,0.18,0.23,0.31c0.06,0.12,0.11,0.27,0.15,0.45c0.04,0.17,0.07,0.37,0.09,0.6c0.02,0.23,0.03,0.48,0.03,0.76
		C36.68,59.41,36.68,59.61,36.66,59.8 M37.36,57.9c-0.06-0.36-0.17-0.67-0.32-0.91c-0.15-0.25-0.35-0.44-0.59-0.56
		c-0.25-0.13-0.55-0.19-0.91-0.19c-0.38,0-0.69,0.07-0.95,0.21c-0.26,0.14-0.47,0.34-0.62,0.6c-0.16,0.26-0.27,0.57-0.34,0.93
		c-0.07,0.36-0.1,0.76-0.1,1.19c0,0.47,0.03,0.88,0.09,1.25c0.06,0.36,0.17,0.67,0.32,0.91c0.15,0.25,0.35,0.43,0.59,0.56
		c0.24,0.13,0.55,0.19,0.9,0.19c0.38,0,0.7-0.07,0.95-0.21c0.26-0.14,0.47-0.34,0.63-0.6c0.16-0.26,0.27-0.57,0.34-0.93
		c0.07-0.36,0.1-0.76,0.1-1.2C37.46,58.67,37.42,58.26,37.36,57.9 M30.94,60.07h-1.84l1.83-3.12h0.01V60.07z M32.46,60.15
		l-0.12-0.08H31.7v-3.63l-0.04-0.07l-0.1-0.05l-0.18-0.03c-0.07-0.01-0.16-0.01-0.26-0.01l-0.23,0.01l-0.17,0.02l-0.11,0.04
		l-0.07,0.06l-2.03,3.45l-0.05,0.11l-0.03,0.11l-0.02,0.12l0,0.15l0.01,0.17l0.04,0.1l0.06,0.05l0.09,0.01h2.33v1.19l0.01,0.06
		l0.06,0.04l0.12,0.03l0.18,0.01l0.18-0.01l0.12-0.03l0.06-0.04l0.02-0.06v-1.19h0.64l0.12-0.08c0.03-0.06,0.04-0.13,0.04-0.23
		C32.51,60.28,32.49,60.2,32.46,60.15"/>
	<path class="st4" d="M36.66,35.8c-0.01,0.19-0.04,0.38-0.07,0.54c-0.03,0.17-0.08,0.32-0.14,0.46c-0.06,0.14-0.13,0.26-0.22,0.35
		c-0.09,0.1-0.2,0.17-0.32,0.23c-0.12,0.05-0.27,0.08-0.43,0.08c-0.21,0-0.39-0.04-0.54-0.13c-0.15-0.09-0.27-0.22-0.36-0.41
		c-0.1-0.19-0.16-0.43-0.21-0.73s-0.07-0.66-0.07-1.08c0-0.32,0.02-0.61,0.05-0.89c0.03-0.28,0.09-0.52,0.18-0.72
		c0.09-0.21,0.21-0.37,0.37-0.48c0.16-0.12,0.36-0.18,0.61-0.18c0.14,0,0.27,0.02,0.38,0.05s0.21,0.09,0.3,0.18
		c0.09,0.08,0.16,0.18,0.23,0.31c0.06,0.12,0.12,0.27,0.15,0.45c0.04,0.17,0.07,0.37,0.09,0.6c0.02,0.23,0.03,0.48,0.03,0.77
		C36.68,35.41,36.67,35.61,36.66,35.8 M37.36,33.9c-0.06-0.36-0.17-0.67-0.32-0.91c-0.15-0.25-0.35-0.43-0.59-0.56
		c-0.24-0.13-0.55-0.19-0.91-0.19c-0.38,0-0.69,0.07-0.95,0.21c-0.26,0.14-0.47,0.34-0.62,0.6c-0.16,0.26-0.27,0.57-0.34,0.93
		c-0.07,0.36-0.11,0.76-0.11,1.19c0,0.47,0.03,0.88,0.09,1.25c0.06,0.36,0.17,0.67,0.32,0.91c0.15,0.25,0.35,0.43,0.59,0.56
		c0.24,0.13,0.55,0.19,0.9,0.19c0.38,0,0.69-0.07,0.95-0.21c0.26-0.14,0.47-0.34,0.63-0.6c0.16-0.26,0.27-0.57,0.34-0.93
		c0.07-0.36,0.1-0.76,0.1-1.2C37.45,34.67,37.42,34.26,37.36,33.9 M32.12,35.5c-0.08-0.2-0.2-0.37-0.36-0.52
		c-0.16-0.14-0.35-0.25-0.59-0.33s-0.51-0.12-0.82-0.12c-0.14,0-0.26,0-0.36,0c-0.1,0-0.2,0.01-0.3,0.03v-1.6h2.03l0.12-0.09
		c0.03-0.06,0.04-0.14,0.04-0.25l-0.01-0.15l-0.03-0.1l-0.06-0.06l-0.07-0.02H29.2l-0.2,0.07c-0.04,0.05-0.07,0.12-0.07,0.22v2.32
		c0,0.11,0.02,0.18,0.05,0.22l0.18,0.06c0.11,0,0.23-0.01,0.36-0.03s0.28-0.03,0.46-0.03c0.25,0,0.47,0.02,0.65,0.07
		c0.18,0.05,0.33,0.11,0.45,0.21c0.12,0.09,0.21,0.21,0.26,0.35c0.06,0.14,0.09,0.3,0.09,0.48c0,0.22-0.03,0.4-0.1,0.55
		c-0.07,0.15-0.16,0.28-0.28,0.38c-0.12,0.1-0.26,0.17-0.42,0.22s-0.35,0.07-0.54,0.07c-0.21,0-0.39-0.02-0.55-0.06
		c-0.15-0.04-0.28-0.08-0.39-0.12c-0.1-0.04-0.19-0.08-0.25-0.12l-0.14-0.05l-0.06,0.02l-0.04,0.05l-0.02,0.1l-0.01,0.13l0,0.14
		l0.01,0.09l0.02,0.06l0.05,0.06l0.15,0.08c0.08,0.03,0.18,0.07,0.3,0.11c0.12,0.04,0.26,0.07,0.42,0.09
		c0.16,0.02,0.33,0.04,0.5,0.04c0.32,0,0.6-0.04,0.86-0.13c0.26-0.09,0.48-0.21,0.67-0.37c0.19-0.16,0.33-0.36,0.43-0.6
		c0.1-0.24,0.15-0.51,0.15-0.81C32.24,35.93,32.2,35.7,32.12,35.5"/>
	<path class="st4" d="M36.66,11.81c-0.01,0.2-0.04,0.38-0.07,0.54c-0.03,0.17-0.08,0.32-0.14,0.46c-0.06,0.14-0.13,0.26-0.22,0.35
		c-0.09,0.1-0.2,0.17-0.32,0.23c-0.12,0.05-0.27,0.08-0.43,0.08c-0.21,0-0.39-0.04-0.54-0.13c-0.15-0.08-0.27-0.22-0.36-0.41
		c-0.1-0.19-0.17-0.43-0.21-0.73c-0.04-0.3-0.07-0.66-0.07-1.08c0-0.32,0.02-0.61,0.05-0.89c0.03-0.27,0.09-0.52,0.18-0.72
		c0.09-0.21,0.21-0.37,0.37-0.48s0.36-0.17,0.61-0.17c0.14,0,0.27,0.02,0.38,0.05c0.11,0.04,0.21,0.1,0.3,0.18
		c0.09,0.08,0.16,0.18,0.23,0.31c0.06,0.12,0.11,0.27,0.15,0.45c0.04,0.17,0.07,0.37,0.09,0.6c0.02,0.22,0.03,0.48,0.03,0.76
		C36.68,11.41,36.68,11.61,36.66,11.81 M37.36,9.9c-0.06-0.36-0.17-0.67-0.32-0.91c-0.15-0.25-0.35-0.44-0.59-0.56
		c-0.24-0.13-0.55-0.19-0.91-0.19c-0.38,0-0.69,0.07-0.95,0.21c-0.26,0.14-0.47,0.34-0.62,0.6c-0.16,0.26-0.27,0.57-0.34,0.93
		c-0.07,0.36-0.1,0.76-0.1,1.19c0,0.47,0.03,0.88,0.09,1.25c0.06,0.36,0.17,0.67,0.32,0.91c0.15,0.25,0.35,0.43,0.59,0.56
		c0.24,0.13,0.55,0.19,0.9,0.19c0.38,0,0.7-0.07,0.95-0.21c0.26-0.14,0.47-0.34,0.63-0.6c0.16-0.26,0.27-0.57,0.34-0.93
		c0.07-0.36,0.1-0.76,0.1-1.2C37.46,10.68,37.42,10.26,37.36,9.9 M31.58,12.68c-0.04,0.15-0.11,0.28-0.2,0.4
		c-0.09,0.12-0.2,0.21-0.34,0.28c-0.14,0.07-0.3,0.11-0.49,0.11c-0.19,0-0.35-0.03-0.48-0.1c-0.14-0.07-0.25-0.18-0.35-0.33
		c-0.09-0.15-0.16-0.36-0.21-0.61c-0.05-0.26-0.07-0.57-0.07-0.95c0.08-0.05,0.16-0.1,0.25-0.15c0.09-0.05,0.19-0.09,0.29-0.12
		c0.1-0.03,0.21-0.06,0.31-0.08c0.11-0.02,0.22-0.03,0.33-0.03c0.19,0,0.36,0.03,0.49,0.08c0.13,0.05,0.24,0.13,0.32,0.22
		c0.08,0.1,0.14,0.21,0.17,0.35c0.03,0.14,0.05,0.29,0.05,0.46C31.65,12.38,31.63,12.54,31.58,12.68 M32.33,11.51
		c-0.06-0.2-0.15-0.38-0.28-0.52c-0.13-0.15-0.3-0.26-0.51-0.35c-0.21-0.08-0.47-0.12-0.78-0.12c-0.14,0-0.28,0.01-0.4,0.03
		c-0.13,0.02-0.25,0.05-0.36,0.09c-0.11,0.03-0.22,0.08-0.31,0.12c-0.1,0.04-0.18,0.09-0.26,0.13c0.01-0.27,0.04-0.53,0.1-0.78
		c0.06-0.25,0.15-0.46,0.28-0.65c0.12-0.19,0.29-0.34,0.48-0.45c0.2-0.11,0.43-0.17,0.7-0.17c0.15,0,0.28,0.01,0.39,0.03
		c0.11,0.02,0.21,0.04,0.29,0.07L31.87,9l0.13,0.03l0.06-0.02l0.04-0.05l0.02-0.09l0-0.14l0-0.1l-0.01-0.08L32.09,8.5l-0.05-0.05
		l-0.13-0.06c-0.07-0.03-0.14-0.05-0.24-0.07c-0.09-0.02-0.2-0.04-0.31-0.05s-0.22-0.02-0.33-0.02c-0.32,0-0.61,0.04-0.85,0.13
		c-0.24,0.09-0.45,0.21-0.63,0.36c-0.17,0.15-0.32,0.33-0.44,0.53c-0.12,0.2-0.21,0.42-0.27,0.65c-0.07,0.23-0.11,0.47-0.14,0.72
		c-0.03,0.25-0.04,0.49-0.04,0.74c0,0.27,0.01,0.53,0.03,0.77c0.02,0.24,0.06,0.46,0.12,0.66c0.05,0.2,0.13,0.38,0.21,0.54
		c0.09,0.16,0.2,0.29,0.34,0.4c0.14,0.11,0.29,0.19,0.47,0.25c0.18,0.06,0.39,0.09,0.63,0.09c0.33,0,0.62-0.05,0.86-0.16
		c0.24-0.11,0.44-0.25,0.6-0.43c0.16-0.18,0.28-0.38,0.35-0.62c0.08-0.23,0.11-0.47,0.11-0.72C32.41,11.92,32.38,11.71,32.33,11.51"
		/>
	<path class="st4" d="M81.43,170.56l-0.03-0.09l-0.05-0.06l-0.07-0.02h-1.03v-5l-0.01-0.05l-0.05-0.04l-0.11-0.02l-0.18-0.01
		l-0.13,0l-0.09,0.01l-0.07,0.02l-0.04,0.02l-1.31,0.84l-0.06,0.05l-0.04,0.06l-0.02,0.09l-0.01,0.13l0.01,0.17l0.04,0.09l0.08,0.02
		l0.13-0.05l1.1-0.65v4.32h-1.19l-0.06,0.02l-0.05,0.06l-0.03,0.09l-0.01,0.14l0.01,0.14l0.04,0.09l0.05,0.05l0.06,0.02h2.97
		l0.06-0.02l0.05-0.05l0.04-0.09l0.01-0.14L81.43,170.56z M73.86,169.48c-0.04,0.18-0.1,0.35-0.18,0.49
		c-0.08,0.15-0.19,0.26-0.32,0.35c-0.13,0.09-0.29,0.13-0.47,0.13c-0.2,0-0.39-0.07-0.57-0.19c-0.18-0.13-0.37-0.31-0.57-0.56v-1.57
		c0.11-0.14,0.22-0.26,0.33-0.36c0.1-0.1,0.2-0.18,0.3-0.24c0.09-0.06,0.19-0.1,0.28-0.13c0.09-0.03,0.18-0.04,0.28-0.04
		c0.19,0,0.35,0.04,0.47,0.13c0.13,0.09,0.23,0.21,0.3,0.35c0.08,0.15,0.13,0.31,0.16,0.5c0.03,0.19,0.05,0.39,0.05,0.59
		C73.92,169.12,73.9,169.3,73.86,169.48 M74.58,168.04c-0.06-0.26-0.15-0.48-0.28-0.67c-0.13-0.19-0.29-0.35-0.5-0.46
		c-0.2-0.11-0.45-0.17-0.73-0.17c-0.13,0-0.26,0.01-0.38,0.05s-0.24,0.08-0.35,0.14c-0.11,0.06-0.23,0.14-0.34,0.23
		c-0.11,0.09-0.23,0.2-0.35,0.32v-0.53l-0.01-0.06l-0.05-0.04l-0.1-0.02l-0.15-0.01l-0.15,0.01l-0.1,0.02l-0.05,0.04l-0.01,0.06
		v5.52l0.02,0.06l0.06,0.04l0.11,0.03l0.18,0.01l0.18-0.01l0.11-0.03l0.06-0.04l0.02-0.06v-1.98c0.11,0.1,0.2,0.19,0.3,0.27
		c0.09,0.08,0.19,0.14,0.28,0.19c0.1,0.05,0.19,0.09,0.29,0.11c0.1,0.02,0.21,0.03,0.32,0.03c0.27,0,0.52-0.05,0.73-0.16
		c0.21-0.1,0.39-0.25,0.54-0.44c0.15-0.19,0.26-0.43,0.33-0.7c0.07-0.27,0.11-0.59,0.11-0.93
		C74.67,168.56,74.64,168.29,74.58,168.04 M68.86,169.48c-0.04,0.18-0.1,0.35-0.18,0.49c-0.08,0.15-0.19,0.26-0.32,0.35
		c-0.13,0.09-0.29,0.13-0.47,0.13c-0.2,0-0.39-0.07-0.57-0.19c-0.18-0.13-0.37-0.31-0.57-0.56v-1.57c0.12-0.14,0.22-0.26,0.33-0.36
		c0.1-0.1,0.2-0.18,0.3-0.24c0.1-0.06,0.19-0.1,0.28-0.13c0.09-0.03,0.18-0.04,0.28-0.04c0.19,0,0.35,0.04,0.47,0.13
		c0.13,0.09,0.23,0.21,0.3,0.35c0.08,0.15,0.13,0.31,0.16,0.5c0.03,0.19,0.05,0.39,0.05,0.59C68.92,169.12,68.9,169.3,68.86,169.48
		 M69.58,168.04c-0.06-0.26-0.15-0.48-0.28-0.67c-0.13-0.19-0.29-0.35-0.5-0.46c-0.2-0.11-0.45-0.17-0.73-0.17
		c-0.13,0-0.26,0.01-0.38,0.05c-0.12,0.03-0.24,0.08-0.35,0.14c-0.11,0.06-0.22,0.14-0.34,0.23c-0.11,0.09-0.23,0.2-0.35,0.32v-0.53
		l-0.01-0.06l-0.05-0.04l-0.1-0.02l-0.15-0.01l-0.15,0.01l-0.1,0.02l-0.05,0.04l-0.01,0.06v5.52l0.01,0.06l0.06,0.04l0.11,0.03
		l0.18,0.01l0.18-0.01l0.11-0.03l0.06-0.04l0.02-0.06v-1.98c0.11,0.1,0.21,0.19,0.3,0.27c0.09,0.08,0.19,0.14,0.28,0.19
		c0.1,0.05,0.19,0.09,0.29,0.11c0.1,0.02,0.21,0.03,0.33,0.03c0.27,0,0.52-0.05,0.73-0.16c0.21-0.1,0.39-0.25,0.54-0.44
		c0.15-0.19,0.26-0.43,0.33-0.7c0.07-0.27,0.11-0.59,0.11-0.93C69.67,168.56,69.64,168.29,69.58,168.04 M63.92,168.9h-1.98
		l0.98-2.83h0L63.92,168.9z M63.47,165.45l-0.05-0.08l-0.09-0.05l-0.15-0.02c-0.06,0-0.14-0.01-0.23-0.01l-0.22,0.01l-0.14,0.02
		l-0.08,0.05l-0.05,0.08l-1.91,5.28l-0.04,0.16l0.03,0.09l0.11,0.04l0.21,0.01l0.2-0.01l0.12-0.03l0.06-0.05l0.04-0.07l0.47-1.37
		h2.36l0.49,1.38l0.04,0.07L64.7,171l0.12,0.02c0.05,0,0.13,0.01,0.22,0.01c0.09,0,0.16,0,0.22-0.01l0.12-0.04l0.03-0.09l-0.04-0.16
		L63.47,165.45z"/>
	<path class="st4" d="M132.05,170.54l-0.04-0.1l-0.06-0.06l-0.07-0.02h-2.47l0.9-0.94c0.33-0.33,0.59-0.63,0.78-0.89
		c0.2-0.26,0.35-0.49,0.45-0.7c0.1-0.21,0.17-0.4,0.2-0.58c0.03-0.18,0.05-0.36,0.05-0.54c0-0.2-0.03-0.39-0.1-0.57
		c-0.07-0.18-0.17-0.34-0.31-0.47c-0.14-0.13-0.31-0.24-0.51-0.32c-0.21-0.08-0.45-0.12-0.72-0.12c-0.17,0-0.34,0.02-0.49,0.05
		s-0.3,0.08-0.43,0.13c-0.13,0.05-0.24,0.1-0.32,0.16l-0.18,0.12l-0.07,0.08l-0.03,0.07l-0.02,0.08l0,0.11l0.01,0.16l0.03,0.11
		l0.04,0.06l0.06,0.02l0.17-0.07c0.07-0.05,0.17-0.1,0.28-0.16c0.11-0.06,0.24-0.11,0.39-0.16c0.15-0.05,0.31-0.07,0.5-0.07
		c0.16,0,0.3,0.02,0.42,0.07c0.12,0.05,0.22,0.12,0.3,0.2c0.08,0.09,0.14,0.18,0.18,0.3c0.04,0.11,0.06,0.23,0.06,0.36
		c0,0.13-0.01,0.26-0.04,0.4c-0.03,0.14-0.08,0.3-0.17,0.48c-0.09,0.18-0.21,0.37-0.37,0.59c-0.16,0.21-0.37,0.45-0.63,0.73
		l-1.14,1.17l-0.09,0.11l-0.06,0.1l-0.03,0.12l-0.01,0.15l0.02,0.16l0.05,0.1l0.08,0.05l0.11,0.02h3.14l0.07-0.02l0.05-0.06
		l0.03-0.1l0.01-0.14L132.05,170.54z M124.5,169.48c-0.04,0.18-0.1,0.35-0.18,0.49c-0.08,0.15-0.19,0.26-0.32,0.35
		c-0.13,0.09-0.29,0.13-0.47,0.13c-0.2,0-0.39-0.07-0.57-0.19c-0.18-0.13-0.37-0.31-0.57-0.56v-1.57c0.11-0.14,0.22-0.26,0.33-0.36
		c0.1-0.1,0.2-0.18,0.3-0.24c0.09-0.06,0.19-0.1,0.28-0.13c0.09-0.03,0.18-0.04,0.28-0.04c0.19,0,0.35,0.04,0.47,0.13
		c0.13,0.09,0.23,0.21,0.3,0.35c0.08,0.15,0.13,0.31,0.16,0.5c0.03,0.19,0.05,0.39,0.05,0.59
		C124.56,169.12,124.54,169.3,124.5,169.48 M125.22,168.04c-0.06-0.26-0.15-0.48-0.28-0.67c-0.13-0.19-0.29-0.35-0.5-0.46
		c-0.2-0.11-0.45-0.17-0.73-0.17c-0.13,0-0.26,0.01-0.38,0.05s-0.24,0.08-0.35,0.14c-0.11,0.06-0.23,0.14-0.34,0.23
		c-0.11,0.09-0.23,0.2-0.35,0.32v-0.53l-0.01-0.06l-0.05-0.04l-0.1-0.02l-0.15-0.01l-0.15,0.01l-0.1,0.02l-0.05,0.04l-0.01,0.06
		v5.52l0.02,0.06l0.06,0.04l0.11,0.03l0.18,0.01l0.18-0.01l0.11-0.03l0.06-0.04l0.02-0.06v-1.98c0.11,0.1,0.2,0.19,0.3,0.27
		c0.09,0.08,0.19,0.14,0.28,0.19c0.1,0.05,0.19,0.09,0.29,0.11c0.1,0.02,0.21,0.03,0.32,0.03c0.27,0,0.52-0.05,0.73-0.16
		c0.21-0.1,0.39-0.25,0.54-0.44c0.15-0.19,0.26-0.43,0.33-0.7c0.07-0.27,0.11-0.59,0.11-0.93
		C125.31,168.56,125.28,168.29,125.22,168.04 M119.5,169.48c-0.04,0.18-0.1,0.35-0.18,0.49c-0.08,0.15-0.19,0.26-0.32,0.35
		c-0.13,0.09-0.29,0.13-0.47,0.13c-0.2,0-0.39-0.07-0.57-0.19c-0.18-0.13-0.37-0.31-0.57-0.56v-1.57c0.12-0.14,0.22-0.26,0.33-0.36
		c0.1-0.1,0.2-0.18,0.3-0.24c0.1-0.06,0.19-0.1,0.28-0.13c0.09-0.03,0.18-0.04,0.28-0.04c0.19,0,0.35,0.04,0.47,0.13
		c0.13,0.09,0.23,0.21,0.3,0.35c0.08,0.15,0.13,0.31,0.16,0.5c0.03,0.19,0.05,0.39,0.05,0.59
		C119.56,169.12,119.54,169.3,119.5,169.48 M120.22,168.04c-0.06-0.26-0.15-0.48-0.28-0.67c-0.13-0.19-0.29-0.35-0.5-0.46
		c-0.2-0.11-0.45-0.17-0.73-0.17c-0.13,0-0.26,0.01-0.38,0.05c-0.12,0.03-0.24,0.08-0.35,0.14c-0.11,0.06-0.22,0.14-0.34,0.23
		c-0.11,0.09-0.23,0.2-0.35,0.32v-0.53l-0.01-0.06l-0.05-0.04l-0.1-0.02l-0.15-0.01l-0.15,0.01l-0.1,0.02l-0.05,0.04l-0.01,0.06
		v5.52l0.01,0.06l0.06,0.04l0.11,0.03l0.18,0.01l0.18-0.01l0.11-0.03l0.06-0.04l0.02-0.06v-1.98c0.11,0.1,0.21,0.19,0.3,0.27
		c0.09,0.08,0.19,0.14,0.28,0.19c0.1,0.05,0.19,0.09,0.29,0.11c0.1,0.02,0.21,0.03,0.33,0.03c0.27,0,0.52-0.05,0.73-0.16
		c0.21-0.1,0.39-0.25,0.54-0.44c0.15-0.19,0.26-0.43,0.33-0.7c0.07-0.27,0.11-0.59,0.11-0.93
		C120.31,168.56,120.28,168.29,120.22,168.04 M114.56,168.9h-1.98l0.98-2.83h0L114.56,168.9z M114.1,165.45l-0.05-0.08l-0.09-0.05
		l-0.15-0.02c-0.06,0-0.14-0.01-0.23-0.01l-0.22,0.01l-0.14,0.02l-0.08,0.05l-0.05,0.08l-1.91,5.28l-0.04,0.16l0.03,0.09l0.11,0.04
		l0.21,0.01l0.2-0.01l0.12-0.03l0.06-0.05l0.04-0.07l0.47-1.37h2.36l0.49,1.38l0.04,0.07l0.06,0.04l0.12,0.02
		c0.05,0,0.13,0.01,0.22,0.01c0.09,0,0.16,0,0.22-0.01l0.12-0.04l0.03-0.09l-0.04-0.16L114.1,165.45z"/>
	<path class="st4" d="M182.56,168.87c-0.07-0.16-0.16-0.29-0.27-0.41c-0.12-0.12-0.26-0.21-0.42-0.29
		c-0.16-0.08-0.34-0.13-0.54-0.15v-0.01c0.17-0.03,0.32-0.09,0.46-0.17c0.13-0.08,0.24-0.18,0.33-0.3c0.09-0.12,0.16-0.26,0.21-0.41
		c0.05-0.15,0.07-0.32,0.07-0.5c0-0.21-0.03-0.4-0.1-0.57c-0.07-0.17-0.17-0.32-0.3-0.44c-0.13-0.12-0.3-0.22-0.5-0.29
		c-0.2-0.07-0.43-0.1-0.69-0.1c-0.19,0-0.36,0.02-0.53,0.05c-0.16,0.04-0.31,0.08-0.43,0.13c-0.12,0.05-0.23,0.1-0.31,0.16
		l-0.17,0.12l-0.06,0.07l-0.03,0.07l-0.02,0.09l-0.01,0.12l0.01,0.16l0.02,0.09l0.04,0.04l0.06,0.01l0.15-0.08
		c0.07-0.05,0.17-0.11,0.28-0.16c0.11-0.06,0.24-0.11,0.38-0.17c0.14-0.05,0.3-0.08,0.47-0.08c0.15,0,0.29,0.02,0.41,0.07
		c0.12,0.05,0.22,0.11,0.29,0.19c0.08,0.08,0.13,0.17,0.17,0.28s0.06,0.22,0.06,0.34c0,0.16-0.03,0.31-0.09,0.44
		c-0.06,0.13-0.14,0.24-0.25,0.34c-0.11,0.09-0.24,0.17-0.39,0.21c-0.15,0.05-0.33,0.08-0.52,0.08h-0.5l-0.07,0.02l-0.05,0.05
		l-0.04,0.09l-0.01,0.14l0.02,0.15l0.04,0.09l0.06,0.05l0.07,0.02h0.56c0.23,0,0.44,0.02,0.62,0.07c0.18,0.05,0.34,0.12,0.46,0.22
		c0.13,0.09,0.22,0.21,0.29,0.33s0.1,0.27,0.1,0.43c0,0.15-0.03,0.28-0.08,0.41c-0.05,0.12-0.13,0.23-0.23,0.32
		c-0.1,0.09-0.23,0.16-0.38,0.21c-0.15,0.05-0.32,0.07-0.52,0.07c-0.21,0-0.39-0.02-0.56-0.07c-0.17-0.05-0.31-0.1-0.44-0.15
		c-0.12-0.05-0.23-0.11-0.31-0.15l-0.16-0.07l-0.09,0.06c-0.02,0.04-0.03,0.11-0.03,0.22l0.01,0.16l0.02,0.11l0.03,0.07l0.05,0.06
		l0.16,0.1c0.08,0.05,0.19,0.09,0.32,0.13c0.13,0.04,0.28,0.08,0.44,0.11c0.16,0.03,0.34,0.05,0.53,0.05c0.31,0,0.59-0.04,0.84-0.12
		c0.25-0.08,0.46-0.2,0.63-0.34c0.17-0.15,0.3-0.33,0.39-0.54c0.09-0.21,0.14-0.44,0.14-0.71
		C182.66,169.2,182.62,169.03,182.56,168.87 M175.14,169.48c-0.04,0.18-0.1,0.35-0.18,0.49c-0.08,0.15-0.19,0.26-0.32,0.35
		c-0.13,0.09-0.29,0.13-0.47,0.13c-0.2,0-0.39-0.07-0.57-0.19c-0.18-0.13-0.37-0.31-0.57-0.56v-1.57c0.11-0.14,0.22-0.26,0.33-0.36
		c0.1-0.1,0.2-0.18,0.3-0.24c0.09-0.06,0.19-0.1,0.28-0.13c0.09-0.03,0.18-0.04,0.28-0.04c0.19,0,0.35,0.04,0.47,0.13
		c0.13,0.09,0.23,0.21,0.3,0.35c0.08,0.15,0.13,0.31,0.16,0.5c0.03,0.19,0.05,0.39,0.05,0.59
		C175.2,169.12,175.18,169.3,175.14,169.48 M175.86,168.04c-0.06-0.26-0.15-0.48-0.28-0.67c-0.13-0.19-0.29-0.35-0.5-0.46
		c-0.2-0.11-0.45-0.17-0.73-0.17c-0.13,0-0.26,0.01-0.38,0.05c-0.12,0.03-0.24,0.08-0.35,0.14c-0.11,0.06-0.23,0.14-0.34,0.23
		c-0.11,0.09-0.23,0.2-0.35,0.32v-0.53l-0.01-0.06l-0.05-0.04l-0.1-0.02l-0.15-0.01l-0.15,0.01l-0.1,0.02l-0.05,0.04l-0.01,0.06
		v5.52l0.02,0.06l0.06,0.04l0.11,0.03l0.18,0.01l0.18-0.01l0.11-0.03l0.06-0.04l0.02-0.06v-1.98c0.11,0.1,0.2,0.19,0.3,0.27
		s0.19,0.14,0.28,0.19c0.1,0.05,0.19,0.09,0.29,0.11c0.1,0.02,0.21,0.03,0.32,0.03c0.27,0,0.52-0.05,0.73-0.16
		c0.21-0.1,0.39-0.25,0.54-0.44c0.14-0.19,0.26-0.43,0.33-0.7c0.07-0.27,0.11-0.59,0.11-0.93
		C175.95,168.56,175.92,168.29,175.86,168.04 M170.14,169.48c-0.04,0.18-0.1,0.35-0.18,0.49c-0.08,0.15-0.19,0.26-0.32,0.35
		c-0.13,0.09-0.29,0.13-0.47,0.13c-0.2,0-0.39-0.07-0.57-0.19c-0.18-0.13-0.37-0.31-0.57-0.56v-1.57c0.12-0.14,0.22-0.26,0.33-0.36
		c0.1-0.1,0.2-0.18,0.3-0.24c0.1-0.06,0.19-0.1,0.28-0.13c0.09-0.03,0.18-0.04,0.28-0.04c0.19,0,0.35,0.04,0.47,0.13
		c0.13,0.09,0.23,0.21,0.3,0.35c0.08,0.15,0.13,0.31,0.16,0.5c0.03,0.19,0.05,0.39,0.05,0.59
		C170.2,169.12,170.18,169.3,170.14,169.48 M170.86,168.04c-0.06-0.26-0.15-0.48-0.28-0.67c-0.13-0.19-0.29-0.35-0.5-0.46
		c-0.2-0.11-0.45-0.17-0.73-0.17c-0.13,0-0.26,0.01-0.38,0.05c-0.12,0.03-0.24,0.08-0.35,0.14c-0.11,0.06-0.22,0.14-0.34,0.23
		c-0.11,0.09-0.23,0.2-0.35,0.32v-0.53l-0.01-0.06l-0.05-0.04l-0.1-0.02l-0.15-0.01l-0.15,0.01l-0.1,0.02l-0.05,0.04l-0.01,0.06
		v5.52l0.01,0.06l0.06,0.04l0.11,0.03l0.18,0.01l0.18-0.01l0.11-0.03l0.06-0.04l0.02-0.06v-1.98c0.11,0.1,0.21,0.19,0.3,0.27
		c0.09,0.08,0.19,0.14,0.28,0.19c0.1,0.05,0.19,0.09,0.29,0.11c0.1,0.02,0.21,0.03,0.33,0.03c0.27,0,0.52-0.05,0.73-0.16
		c0.21-0.1,0.39-0.25,0.54-0.44c0.15-0.19,0.26-0.43,0.33-0.7c0.07-0.27,0.11-0.59,0.11-0.93
		C170.95,168.56,170.92,168.29,170.86,168.04 M165.2,168.9h-1.98l0.98-2.83h0L165.2,168.9z M164.74,165.45l-0.05-0.08l-0.09-0.05
		l-0.15-0.02c-0.06,0-0.14-0.01-0.23-0.01l-0.22,0.01l-0.14,0.02l-0.08,0.05l-0.05,0.08l-1.91,5.28l-0.04,0.16l0.03,0.09l0.11,0.04
		l0.21,0.01l0.2-0.01l0.12-0.03l0.06-0.05l0.04-0.07l0.47-1.37h2.36l0.49,1.38l0.04,0.07l0.06,0.04l0.12,0.02
		c0.05,0,0.13,0.01,0.22,0.01c0.09,0,0.16,0,0.22-0.01l0.12-0.04l0.03-0.09l-0.04-0.16L164.74,165.45z"/>
	<path class="st4" d="M232.02,169.07h-1.84l1.83-3.12h0.01V169.07z M233.53,169.15l-0.12-0.08h-0.64v-3.63l-0.04-0.07l-0.1-0.05
		l-0.18-0.03c-0.07-0.01-0.16-0.01-0.26-0.01l-0.23,0.01l-0.17,0.02l-0.11,0.04l-0.07,0.06l-2.03,3.45l-0.05,0.11l-0.04,0.11
		l-0.02,0.12l-0.01,0.15l0.01,0.17l0.04,0.1l0.06,0.05l0.09,0.01h2.33v1.19l0.02,0.06l0.06,0.04l0.11,0.03l0.18,0.01l0.19-0.01
		l0.12-0.03l0.06-0.04l0.02-0.06v-1.19h0.64l0.12-0.08c0.03-0.06,0.04-0.13,0.04-0.23C233.58,169.28,233.56,169.2,233.53,169.15
		 M225.78,169.48c-0.04,0.18-0.1,0.35-0.18,0.49c-0.08,0.15-0.19,0.26-0.32,0.35c-0.13,0.09-0.29,0.13-0.47,0.13
		c-0.2,0-0.39-0.07-0.57-0.19c-0.18-0.13-0.37-0.31-0.57-0.56v-1.57c0.11-0.14,0.22-0.26,0.33-0.36c0.1-0.1,0.2-0.18,0.3-0.24
		c0.09-0.06,0.19-0.1,0.28-0.13c0.09-0.03,0.18-0.04,0.28-0.04c0.19,0,0.35,0.04,0.47,0.13c0.13,0.09,0.23,0.21,0.3,0.35
		c0.08,0.15,0.13,0.31,0.16,0.5s0.05,0.39,0.05,0.59C225.83,169.12,225.81,169.3,225.78,169.48 M226.5,168.04
		c-0.06-0.26-0.15-0.48-0.28-0.67c-0.13-0.19-0.29-0.35-0.49-0.46c-0.2-0.11-0.45-0.17-0.73-0.17c-0.13,0-0.26,0.01-0.38,0.05
		c-0.12,0.03-0.23,0.08-0.35,0.14c-0.11,0.06-0.23,0.14-0.34,0.23c-0.11,0.09-0.23,0.2-0.35,0.32v-0.53l-0.01-0.06l-0.05-0.04
		l-0.1-0.02l-0.15-0.01l-0.15,0.01l-0.1,0.02l-0.05,0.04l-0.01,0.06v5.52l0.02,0.06l0.06,0.04l0.11,0.03l0.18,0.01l0.18-0.01
		l0.11-0.03l0.06-0.04l0.02-0.06v-1.98c0.11,0.1,0.2,0.19,0.3,0.27c0.09,0.08,0.19,0.14,0.28,0.19c0.1,0.05,0.19,0.09,0.29,0.11
		c0.1,0.02,0.21,0.03,0.33,0.03c0.27,0,0.52-0.05,0.73-0.16c0.21-0.1,0.39-0.25,0.54-0.44c0.15-0.19,0.26-0.43,0.33-0.7
		c0.07-0.27,0.11-0.59,0.11-0.93C226.59,168.56,226.56,168.29,226.5,168.04 M220.78,169.48c-0.04,0.18-0.1,0.35-0.18,0.49
		c-0.08,0.15-0.19,0.26-0.32,0.35c-0.13,0.09-0.29,0.13-0.47,0.13c-0.2,0-0.39-0.07-0.57-0.19c-0.18-0.13-0.37-0.31-0.57-0.56v-1.57
		c0.11-0.14,0.22-0.26,0.33-0.36c0.1-0.1,0.2-0.18,0.3-0.24c0.1-0.06,0.19-0.1,0.28-0.13c0.09-0.03,0.18-0.04,0.28-0.04
		c0.19,0,0.35,0.04,0.47,0.13c0.13,0.09,0.23,0.21,0.3,0.35c0.08,0.15,0.13,0.31,0.16,0.5c0.03,0.19,0.05,0.39,0.05,0.59
		C220.83,169.12,220.81,169.3,220.78,169.48 M221.5,168.04c-0.06-0.26-0.15-0.48-0.28-0.67c-0.13-0.19-0.29-0.35-0.49-0.46
		c-0.2-0.11-0.45-0.17-0.73-0.17c-0.13,0-0.26,0.01-0.38,0.05c-0.12,0.03-0.23,0.08-0.35,0.14c-0.11,0.06-0.23,0.14-0.34,0.23
		c-0.11,0.09-0.23,0.2-0.35,0.32v-0.53l-0.01-0.06l-0.05-0.04l-0.1-0.02l-0.15-0.01l-0.15,0.01l-0.1,0.02l-0.05,0.04l-0.01,0.06
		v5.52l0.02,0.06l0.06,0.04l0.11,0.03l0.18,0.01l0.18-0.01l0.11-0.03l0.06-0.04l0.02-0.06v-1.98c0.11,0.1,0.2,0.19,0.3,0.27
		c0.09,0.08,0.19,0.14,0.28,0.19s0.19,0.09,0.29,0.11c0.1,0.02,0.21,0.03,0.33,0.03c0.27,0,0.52-0.05,0.73-0.16
		c0.21-0.1,0.39-0.25,0.54-0.44c0.15-0.19,0.26-0.43,0.33-0.7c0.08-0.27,0.11-0.59,0.11-0.93
		C221.58,168.56,221.56,168.29,221.5,168.04 M215.83,168.9h-1.98l0.98-2.83h0L215.83,168.9z M215.38,165.45l-0.05-0.08l-0.09-0.05
		l-0.15-0.02c-0.06,0-0.14-0.01-0.23-0.01l-0.22,0.01l-0.14,0.02l-0.08,0.05l-0.05,0.08l-1.91,5.28l-0.04,0.16l0.03,0.09l0.11,0.04
		l0.21,0.01l0.2-0.01l0.12-0.03l0.06-0.05l0.04-0.07l0.47-1.37h2.36l0.49,1.38l0.04,0.07l0.06,0.04l0.12,0.02
		c0.05,0,0.13,0.01,0.22,0.01c0.09,0,0.16,0,0.22-0.01l0.12-0.04l0.03-0.09l-0.04-0.16L215.38,165.45z"/>
	<path class="st4" d="M283.83,168.5c-0.08-0.2-0.2-0.37-0.36-0.52c-0.16-0.14-0.35-0.25-0.59-0.33s-0.51-0.12-0.82-0.12
		c-0.14,0-0.25,0-0.36,0.01c-0.1,0-0.2,0.01-0.3,0.03v-1.6h2.03l0.12-0.09c0.03-0.06,0.04-0.14,0.04-0.25l-0.01-0.15l-0.03-0.1
		l-0.05-0.06l-0.07-0.02h-2.52l-0.2,0.07c-0.04,0.05-0.07,0.12-0.07,0.21v2.32c0,0.11,0.02,0.18,0.05,0.22l0.18,0.06
		c0.11,0,0.23-0.01,0.36-0.03c0.13-0.02,0.28-0.03,0.46-0.03c0.25,0,0.47,0.02,0.65,0.07c0.18,0.04,0.33,0.11,0.45,0.21
		c0.12,0.09,0.21,0.21,0.26,0.35c0.06,0.14,0.09,0.3,0.09,0.48c0,0.22-0.03,0.4-0.1,0.55c-0.07,0.15-0.16,0.28-0.28,0.38
		c-0.12,0.1-0.26,0.17-0.42,0.22c-0.16,0.05-0.35,0.07-0.54,0.07c-0.21,0-0.39-0.02-0.55-0.06c-0.15-0.04-0.28-0.08-0.39-0.12
		c-0.1-0.04-0.19-0.08-0.25-0.12l-0.14-0.05l-0.06,0.02l-0.04,0.05l-0.02,0.1l-0.01,0.13l0.01,0.14l0.02,0.09l0.02,0.06l0.05,0.06
		l0.15,0.08c0.08,0.04,0.18,0.07,0.3,0.11c0.12,0.04,0.26,0.07,0.42,0.09c0.16,0.02,0.33,0.04,0.5,0.04c0.32,0,0.6-0.04,0.86-0.13
		c0.26-0.08,0.48-0.21,0.67-0.37c0.19-0.16,0.33-0.36,0.43-0.6c0.1-0.24,0.15-0.51,0.15-0.81
		C283.95,168.93,283.91,168.7,283.83,168.5 M276.41,169.48c-0.04,0.18-0.1,0.35-0.18,0.49c-0.08,0.15-0.19,0.26-0.32,0.35
		c-0.13,0.09-0.29,0.13-0.47,0.13c-0.2,0-0.39-0.07-0.57-0.19c-0.18-0.13-0.37-0.31-0.57-0.56v-1.57c0.11-0.14,0.22-0.26,0.33-0.36
		c0.1-0.1,0.2-0.18,0.3-0.24c0.09-0.06,0.19-0.1,0.28-0.13c0.09-0.03,0.18-0.04,0.28-0.04c0.19,0,0.35,0.04,0.47,0.13
		c0.13,0.09,0.23,0.21,0.3,0.35c0.08,0.15,0.13,0.31,0.16,0.5s0.05,0.39,0.05,0.59C276.47,169.12,276.45,169.3,276.41,169.48
		 M277.13,168.04c-0.06-0.26-0.15-0.48-0.28-0.67c-0.13-0.19-0.29-0.35-0.49-0.46c-0.2-0.11-0.45-0.17-0.73-0.17
		c-0.13,0-0.26,0.01-0.38,0.05c-0.12,0.03-0.23,0.08-0.35,0.14c-0.11,0.06-0.23,0.14-0.34,0.23c-0.11,0.09-0.23,0.2-0.35,0.32v-0.53
		l-0.01-0.06l-0.05-0.04l-0.1-0.02l-0.15-0.01l-0.15,0.01l-0.1,0.02l-0.05,0.04l-0.01,0.06v5.52l0.02,0.06l0.06,0.04l0.11,0.03
		l0.18,0.01l0.18-0.01l0.11-0.03l0.06-0.04l0.02-0.06v-1.98c0.11,0.1,0.2,0.19,0.3,0.27c0.09,0.08,0.19,0.14,0.28,0.19
		c0.1,0.05,0.19,0.09,0.29,0.11c0.1,0.02,0.21,0.03,0.33,0.03c0.27,0,0.52-0.05,0.73-0.16c0.21-0.1,0.39-0.25,0.54-0.44
		c0.15-0.19,0.26-0.43,0.33-0.7c0.07-0.27,0.11-0.59,0.11-0.93C277.22,168.56,277.19,168.29,277.13,168.04 M271.41,169.48
		c-0.04,0.18-0.1,0.35-0.18,0.49c-0.08,0.15-0.19,0.26-0.32,0.35c-0.13,0.09-0.29,0.13-0.47,0.13c-0.2,0-0.39-0.07-0.57-0.19
		c-0.18-0.13-0.37-0.31-0.57-0.56v-1.57c0.11-0.14,0.22-0.26,0.33-0.36c0.1-0.1,0.2-0.18,0.3-0.24c0.1-0.06,0.19-0.1,0.28-0.13
		c0.09-0.03,0.18-0.04,0.28-0.04c0.19,0,0.35,0.04,0.47,0.13c0.13,0.09,0.23,0.21,0.3,0.35c0.08,0.15,0.13,0.31,0.16,0.5
		c0.03,0.19,0.05,0.39,0.05,0.59C271.47,169.12,271.45,169.3,271.41,169.48 M272.13,168.04c-0.06-0.26-0.15-0.48-0.28-0.67
		c-0.13-0.19-0.29-0.35-0.49-0.46c-0.2-0.11-0.45-0.17-0.73-0.17c-0.13,0-0.26,0.01-0.38,0.05c-0.12,0.03-0.23,0.08-0.35,0.14
		c-0.11,0.06-0.23,0.14-0.34,0.23c-0.11,0.09-0.23,0.2-0.35,0.32v-0.53l-0.01-0.06l-0.05-0.04l-0.1-0.02l-0.15-0.01l-0.15,0.01
		l-0.1,0.02l-0.05,0.04l-0.01,0.06v5.52l0.02,0.06l0.06,0.04l0.11,0.03l0.18,0.01l0.18-0.01l0.11-0.03l0.06-0.04l0.02-0.06v-1.98
		c0.11,0.1,0.2,0.19,0.3,0.27c0.09,0.08,0.19,0.14,0.28,0.19s0.19,0.09,0.29,0.11c0.1,0.02,0.21,0.03,0.33,0.03
		c0.27,0,0.52-0.05,0.73-0.16c0.21-0.1,0.39-0.25,0.54-0.44c0.15-0.19,0.26-0.43,0.33-0.7c0.08-0.27,0.11-0.59,0.11-0.93
		C272.22,168.56,272.19,168.29,272.13,168.04 M266.47,168.9h-1.98l0.98-2.83h0L266.47,168.9z M266.02,165.45l-0.05-0.08l-0.09-0.05
		l-0.15-0.02c-0.06,0-0.14-0.01-0.23-0.01l-0.22,0.01l-0.14,0.02l-0.08,0.05l-0.05,0.08l-1.91,5.28l-0.04,0.16l0.03,0.09l0.11,0.04
		l0.21,0.01l0.2-0.01l0.12-0.03l0.06-0.05l0.04-0.07l0.47-1.37h2.36l0.49,1.38l0.04,0.07l0.06,0.04l0.12,0.02
		c0.05,0,0.13,0.01,0.22,0.01c0.09,0,0.16,0,0.22-0.01l0.12-0.04l0.03-0.09l-0.04-0.16L266.02,165.45z"/>
	<path class="st4" d="M333.93,169.68c-0.04,0.15-0.11,0.28-0.2,0.4c-0.09,0.12-0.2,0.21-0.34,0.28c-0.14,0.07-0.3,0.11-0.49,0.11
		c-0.18,0-0.35-0.03-0.48-0.1c-0.14-0.07-0.25-0.18-0.35-0.33c-0.09-0.15-0.16-0.36-0.21-0.61c-0.05-0.25-0.07-0.57-0.07-0.95
		c0.08-0.05,0.16-0.1,0.25-0.15c0.09-0.04,0.19-0.08,0.29-0.12c0.1-0.03,0.21-0.06,0.31-0.08c0.11-0.02,0.22-0.03,0.33-0.03
		c0.19,0,0.36,0.03,0.49,0.08c0.13,0.05,0.24,0.13,0.32,0.22c0.08,0.1,0.14,0.21,0.17,0.35s0.05,0.29,0.05,0.46
		C333.99,169.38,333.97,169.54,333.93,169.68 M334.68,168.51c-0.06-0.2-0.15-0.38-0.28-0.52c-0.13-0.15-0.3-0.26-0.51-0.35
		c-0.21-0.08-0.47-0.12-0.78-0.12c-0.14,0-0.28,0.01-0.4,0.03s-0.24,0.05-0.36,0.09s-0.22,0.07-0.31,0.12
		c-0.1,0.04-0.18,0.09-0.26,0.13c0.01-0.27,0.04-0.53,0.1-0.77c0.06-0.25,0.15-0.47,0.28-0.65c0.12-0.19,0.29-0.34,0.48-0.45
		c0.2-0.11,0.43-0.17,0.7-0.17c0.15,0,0.28,0.01,0.39,0.03c0.11,0.02,0.21,0.04,0.29,0.07l0.2,0.07l0.13,0.03l0.06-0.02l0.04-0.05
		l0.02-0.09l0-0.14l-0.01-0.1l-0.01-0.07l-0.02-0.06l-0.05-0.05l-0.13-0.06c-0.06-0.03-0.14-0.05-0.24-0.07s-0.2-0.04-0.31-0.05
		c-0.11-0.01-0.22-0.02-0.33-0.02c-0.32,0-0.61,0.04-0.85,0.13c-0.24,0.09-0.45,0.21-0.63,0.36c-0.18,0.15-0.32,0.33-0.43,0.53
		c-0.12,0.2-0.21,0.42-0.28,0.65c-0.07,0.23-0.11,0.47-0.14,0.72c-0.03,0.25-0.04,0.49-0.04,0.74c0,0.27,0.01,0.53,0.04,0.77
		c0.02,0.24,0.06,0.46,0.12,0.66c0.05,0.2,0.13,0.38,0.22,0.54c0.09,0.16,0.2,0.29,0.34,0.4c0.14,0.11,0.29,0.19,0.47,0.25
		c0.18,0.06,0.39,0.09,0.63,0.09c0.33,0,0.62-0.05,0.86-0.16c0.24-0.11,0.44-0.25,0.6-0.43c0.16-0.18,0.28-0.38,0.35-0.62
		s0.11-0.47,0.11-0.72C334.76,168.92,334.73,168.71,334.68,168.51 M327.05,169.48c-0.04,0.18-0.1,0.35-0.18,0.49
		c-0.08,0.15-0.19,0.26-0.32,0.35c-0.13,0.09-0.29,0.13-0.47,0.13c-0.2,0-0.39-0.07-0.57-0.19c-0.18-0.13-0.37-0.31-0.57-0.56v-1.57
		c0.11-0.14,0.22-0.26,0.33-0.36c0.1-0.1,0.2-0.18,0.3-0.24c0.09-0.06,0.19-0.1,0.28-0.13c0.09-0.03,0.18-0.04,0.28-0.04
		c0.19,0,0.35,0.04,0.47,0.13c0.13,0.09,0.23,0.21,0.3,0.35c0.08,0.15,0.13,0.31,0.16,0.5s0.05,0.39,0.05,0.59
		C327.11,169.12,327.09,169.3,327.05,169.48 M327.77,168.04c-0.06-0.26-0.15-0.48-0.28-0.67c-0.13-0.19-0.29-0.35-0.49-0.46
		c-0.2-0.11-0.45-0.17-0.73-0.17c-0.13,0-0.26,0.01-0.38,0.05c-0.12,0.03-0.23,0.08-0.35,0.14c-0.11,0.06-0.23,0.14-0.34,0.23
		c-0.11,0.09-0.23,0.2-0.35,0.32v-0.53l-0.01-0.06l-0.05-0.04l-0.1-0.02l-0.15-0.01l-0.15,0.01l-0.1,0.02l-0.05,0.04l-0.01,0.06
		v5.52l0.02,0.06l0.06,0.04l0.11,0.03l0.18,0.01l0.18-0.01l0.11-0.03l0.06-0.04l0.02-0.06v-1.98c0.11,0.1,0.2,0.19,0.3,0.27
		c0.09,0.08,0.19,0.14,0.28,0.19c0.1,0.05,0.19,0.09,0.29,0.11c0.1,0.02,0.21,0.03,0.33,0.03c0.27,0,0.52-0.05,0.73-0.16
		c0.21-0.1,0.39-0.25,0.54-0.44c0.15-0.19,0.26-0.43,0.33-0.7c0.07-0.27,0.11-0.59,0.11-0.93
		C327.86,168.56,327.83,168.29,327.77,168.04 M322.05,169.48c-0.04,0.18-0.1,0.35-0.18,0.49c-0.08,0.15-0.19,0.26-0.32,0.35
		c-0.13,0.09-0.29,0.13-0.47,0.13c-0.2,0-0.39-0.07-0.57-0.19c-0.18-0.13-0.37-0.31-0.57-0.56v-1.57c0.11-0.14,0.22-0.26,0.33-0.36
		c0.1-0.1,0.2-0.18,0.3-0.24c0.1-0.06,0.19-0.1,0.28-0.13c0.09-0.03,0.18-0.04,0.28-0.04c0.19,0,0.35,0.04,0.47,0.13
		c0.13,0.09,0.23,0.21,0.3,0.35c0.08,0.15,0.13,0.31,0.16,0.5c0.03,0.19,0.05,0.39,0.05,0.59
		C322.11,169.12,322.09,169.3,322.05,169.48 M322.77,168.04c-0.06-0.26-0.15-0.48-0.28-0.67c-0.13-0.19-0.29-0.35-0.49-0.46
		c-0.2-0.11-0.45-0.17-0.73-0.17c-0.13,0-0.26,0.01-0.38,0.05c-0.12,0.03-0.23,0.08-0.35,0.14c-0.11,0.06-0.23,0.14-0.34,0.23
		c-0.11,0.09-0.23,0.2-0.35,0.32v-0.53l-0.01-0.06l-0.05-0.04l-0.1-0.02l-0.15-0.01l-0.15,0.01l-0.1,0.02l-0.05,0.04l-0.01,0.06
		v5.52l0.02,0.06l0.06,0.04l0.11,0.03l0.18,0.01l0.18-0.01l0.11-0.03l0.06-0.04l0.02-0.06v-1.98c0.11,0.1,0.2,0.19,0.3,0.27
		c0.09,0.08,0.19,0.14,0.28,0.19s0.19,0.09,0.29,0.11c0.1,0.02,0.21,0.03,0.33,0.03c0.27,0,0.52-0.05,0.73-0.16
		c0.21-0.1,0.39-0.25,0.54-0.44c0.15-0.19,0.26-0.43,0.33-0.7c0.08-0.27,0.11-0.59,0.11-0.93
		C322.86,168.56,322.83,168.29,322.77,168.04 M317.11,168.9h-1.98l0.98-2.83h0L317.11,168.9z M316.66,165.45l-0.05-0.08l-0.09-0.05
		l-0.15-0.02c-0.06,0-0.14-0.01-0.23-0.01l-0.22,0.01l-0.14,0.02l-0.08,0.05l-0.05,0.08l-1.91,5.28l-0.04,0.16l0.03,0.09l0.11,0.04
		l0.21,0.01l0.2-0.01l0.12-0.03l0.06-0.05l0.04-0.07l0.47-1.37h2.36l0.49,1.38l0.04,0.07l0.06,0.04l0.12,0.02
		c0.05,0,0.13,0.01,0.22,0.01c0.09,0,0.16,0,0.22-0.01l0.12-0.04l0.03-0.09l-0.04-0.16L316.66,165.45z"/>
	<path class="st4" d="M21.55,46.3c0.16,0.13,0.29,0.25,0.4,0.36c0.11,0.11,0.2,0.22,0.27,0.33c0.07,0.1,0.12,0.21,0.15,0.31
		s0.04,0.2,0.04,0.31c0,0.21-0.05,0.39-0.15,0.53c-0.1,0.14-0.23,0.25-0.4,0.34c-0.16,0.09-0.35,0.14-0.56,0.18
		c-0.21,0.03-0.43,0.05-0.65,0.05c-0.21,0-0.41-0.02-0.62-0.06c-0.2-0.04-0.38-0.11-0.54-0.2c-0.16-0.09-0.29-0.21-0.39-0.35
		c-0.1-0.14-0.15-0.32-0.15-0.52c0-0.22,0.07-0.43,0.21-0.64c0.14-0.2,0.35-0.41,0.62-0.63H21.55z M16.37,45.49l-0.07,0.02
		l-0.05,0.07l-0.03,0.12l-0.01,0.2l0.01,0.19l0.03,0.12l0.05,0.07l0.07,0.02h2.55c-0.22,0.21-0.38,0.42-0.5,0.63
		c-0.11,0.21-0.17,0.45-0.17,0.71c0,0.31,0.06,0.58,0.17,0.82c0.11,0.24,0.28,0.43,0.49,0.59c0.22,0.16,0.48,0.28,0.78,0.36
		c0.3,0.08,0.65,0.12,1.02,0.12c0.32,0,0.62-0.03,0.91-0.1c0.29-0.07,0.54-0.17,0.75-0.31c0.21-0.14,0.38-0.33,0.51-0.55
		c0.13-0.23,0.19-0.5,0.19-0.83c0-0.3-0.07-0.57-0.21-0.82s-0.33-0.49-0.59-0.72h0.58l0.07-0.02l0.05-0.06l0.03-0.11l0.01-0.17
		l-0.01-0.17l-0.03-0.11l-0.05-0.06l-0.07-0.02H16.37z M20.2,50.47c-0.31,0-0.58,0.03-0.8,0.08c-0.22,0.05-0.42,0.14-0.58,0.27
		c-0.17,0.12-0.3,0.29-0.4,0.49c-0.1,0.2-0.15,0.45-0.15,0.74c0,0.25,0.07,0.5,0.19,0.74c0.13,0.25,0.33,0.49,0.61,0.74h-0.58
		l-0.07,0.02l-0.05,0.06l-0.03,0.11l-0.01,0.18l0.01,0.18l0.03,0.11l0.05,0.06l0.07,0.01h4.39l0.07-0.02l0.05-0.06l0.03-0.12
		l0.01-0.2l-0.01-0.2l-0.03-0.12l-0.05-0.06l-0.07-0.02h-3.07c-0.28-0.22-0.49-0.43-0.63-0.64c-0.14-0.2-0.21-0.4-0.21-0.61
		c0-0.16,0.03-0.29,0.09-0.41c0.06-0.12,0.14-0.22,0.25-0.29c0.11-0.07,0.24-0.13,0.4-0.17c0.15-0.04,0.35-0.06,0.6-0.06h2.57
		l0.07-0.02l0.05-0.06l0.03-0.12l0.01-0.2l-0.01-0.2l-0.03-0.12l-0.05-0.06l-0.07-0.02H20.2z M21.38,56.08
		c0.21,0.05,0.39,0.14,0.55,0.25c0.15,0.11,0.27,0.25,0.36,0.43c0.08,0.17,0.13,0.38,0.13,0.62c0,0.26-0.05,0.48-0.14,0.65
		c-0.09,0.17-0.22,0.31-0.38,0.42c-0.16,0.1-0.34,0.18-0.56,0.22c-0.21,0.04-0.44,0.07-0.68,0.07c-0.25,0-0.48-0.03-0.69-0.08
		c-0.21-0.05-0.39-0.14-0.55-0.25s-0.27-0.25-0.36-0.43c-0.08-0.17-0.13-0.38-0.13-0.62c0-0.26,0.05-0.48,0.14-0.65
		c0.09-0.17,0.22-0.31,0.38-0.41c0.16-0.1,0.35-0.17,0.56-0.22c0.21-0.04,0.44-0.07,0.67-0.07C20.94,56,21.17,56.03,21.38,56.08
		 M19.64,55.3c-0.29,0.09-0.54,0.22-0.75,0.4c-0.21,0.18-0.36,0.4-0.47,0.67c-0.11,0.27-0.16,0.58-0.16,0.95
		c0,0.37,0.06,0.7,0.18,0.98c0.12,0.28,0.29,0.51,0.51,0.7c0.22,0.19,0.48,0.33,0.78,0.42s0.63,0.14,0.99,0.14
		c0.37,0,0.7-0.04,1-0.13s0.54-0.22,0.75-0.4c0.21-0.18,0.36-0.4,0.47-0.67c0.11-0.27,0.16-0.58,0.16-0.95
		c0-0.37-0.06-0.7-0.18-0.98c-0.12-0.28-0.29-0.51-0.51-0.7c-0.22-0.19-0.48-0.33-0.78-0.42s-0.63-0.14-0.99-0.14
		C20.26,55.17,19.93,55.21,19.64,55.3 M22.04,60.1l-0.12,0.02l-0.07,0.04l-0.02,0.06l0.09,0.16c0.06,0.07,0.12,0.16,0.19,0.26
		c0.07,0.1,0.14,0.22,0.19,0.36c0.06,0.14,0.09,0.3,0.09,0.49c0,0.2-0.04,0.37-0.11,0.52c-0.07,0.15-0.18,0.28-0.32,0.38
		c-0.14,0.1-0.32,0.18-0.53,0.24c-0.21,0.05-0.46,0.08-0.75,0.08c-0.57,0-1-0.1-1.3-0.31c-0.3-0.21-0.45-0.5-0.45-0.89
		c0-0.19,0.03-0.35,0.08-0.49c0.05-0.14,0.11-0.26,0.18-0.35c0.07-0.1,0.12-0.18,0.18-0.24l0.08-0.17l-0.08-0.11
		c-0.05-0.03-0.14-0.04-0.27-0.04l-0.15,0.01l-0.1,0.02l-0.08,0.04l-0.09,0.08l-0.14,0.19c-0.06,0.09-0.1,0.18-0.15,0.3
		c-0.04,0.11-0.08,0.23-0.1,0.36c-0.03,0.13-0.04,0.27-0.04,0.41c0,0.29,0.05,0.56,0.14,0.81c0.1,0.25,0.24,0.47,0.44,0.65
		c0.2,0.18,0.45,0.33,0.76,0.43c0.31,0.11,0.68,0.16,1.12,0.16c0.38,0,0.72-0.04,1.01-0.13c0.29-0.09,0.54-0.21,0.74-0.38
		c0.2-0.17,0.35-0.37,0.46-0.61c0.1-0.24,0.16-0.52,0.16-0.84c0-0.15-0.01-0.3-0.04-0.44c-0.03-0.14-0.07-0.28-0.11-0.4
		c-0.05-0.12-0.1-0.23-0.16-0.33c-0.06-0.1-0.11-0.17-0.15-0.21l-0.09-0.08l-0.07-0.03l-0.1-0.02l-0.14-0.01L22.04,60.1z
		 M20.25,67.71c-0.18-0.01-0.35-0.04-0.52-0.09c-0.16-0.06-0.31-0.13-0.43-0.24c-0.12-0.1-0.22-0.23-0.3-0.38
		c-0.07-0.15-0.11-0.33-0.11-0.53c0-0.39,0.12-0.68,0.36-0.88c0.24-0.2,0.57-0.29,1-0.28V67.71z M20.34,64.5
		c-0.29,0-0.56,0.04-0.81,0.11c-0.25,0.07-0.47,0.19-0.66,0.34c-0.19,0.16-0.34,0.36-0.45,0.6c-0.11,0.24-0.17,0.54-0.17,0.88
		c0,0.32,0.06,0.61,0.17,0.87c0.11,0.26,0.27,0.48,0.48,0.67c0.21,0.18,0.47,0.32,0.77,0.42c0.3,0.1,0.64,0.15,1.02,0.15
		c0.4,0,0.74-0.05,1.04-0.14c0.3-0.1,0.55-0.24,0.75-0.42c0.2-0.19,0.35-0.41,0.45-0.69c0.1-0.27,0.15-0.59,0.15-0.95
		c0-0.21-0.01-0.4-0.05-0.59c-0.03-0.18-0.07-0.35-0.11-0.49c-0.04-0.14-0.08-0.25-0.12-0.34l-0.09-0.16l-0.06-0.04l-0.07-0.02
		l-0.08-0.01l-0.11-0.01l-0.15,0.01l-0.1,0.02l-0.05,0.04l-0.02,0.06L22.16,65c0.03,0.08,0.07,0.17,0.11,0.29
		c0.04,0.12,0.08,0.26,0.11,0.42c0.03,0.16,0.05,0.35,0.05,0.56c0,0.27-0.04,0.49-0.11,0.67c-0.08,0.18-0.18,0.33-0.32,0.45
		c-0.14,0.11-0.31,0.2-0.5,0.25c-0.2,0.05-0.42,0.07-0.66,0.07v-2.89l-0.08-0.22c-0.05-0.06-0.14-0.1-0.27-0.1H20.34z M20.58,69.89
		c-0.18,0.08-0.34,0.19-0.48,0.33s-0.25,0.29-0.35,0.46c-0.1,0.17-0.19,0.35-0.27,0.53c-0.08,0.18-0.17,0.35-0.25,0.53
		c-0.08,0.17-0.17,0.33-0.27,0.46c-0.1,0.14-0.21,0.24-0.34,0.33s-0.28,0.12-0.45,0.12c-0.12,0-0.24-0.02-0.34-0.06
		c-0.11-0.04-0.2-0.11-0.28-0.19c-0.08-0.08-0.14-0.19-0.19-0.32c-0.05-0.13-0.07-0.28-0.07-0.46c0-0.19,0.02-0.36,0.07-0.51
		c0.05-0.15,0.1-0.28,0.16-0.39c0.06-0.11,0.11-0.21,0.15-0.28l0.07-0.17l-0.02-0.06l-0.07-0.04l-0.12-0.02l-0.16-0.01l-0.15,0.01
		l-0.1,0.02l-0.07,0.02l-0.07,0.06c-0.03,0.03-0.07,0.1-0.12,0.19c-0.05,0.1-0.1,0.21-0.14,0.33c-0.04,0.12-0.07,0.26-0.1,0.4
		c-0.02,0.14-0.04,0.28-0.04,0.42c0,0.27,0.04,0.53,0.11,0.76c0.07,0.24,0.18,0.44,0.32,0.61c0.14,0.17,0.31,0.3,0.52,0.4
		c0.21,0.1,0.44,0.14,0.71,0.14c0.26,0,0.48-0.04,0.66-0.12c0.18-0.08,0.35-0.19,0.48-0.32c0.14-0.13,0.26-0.28,0.36-0.45
		c0.1-0.17,0.19-0.34,0.28-0.52c0.08-0.18,0.16-0.35,0.24-0.53s0.17-0.32,0.26-0.46c0.1-0.13,0.21-0.24,0.33-0.32
		s0.28-0.12,0.46-0.12c0.17,0,0.31,0.03,0.44,0.09c0.13,0.06,0.24,0.14,0.33,0.25c0.09,0.11,0.16,0.24,0.21,0.39
		c0.05,0.15,0.07,0.32,0.07,0.5c0,0.24-0.03,0.45-0.09,0.64c-0.06,0.18-0.12,0.34-0.18,0.47s-0.12,0.24-0.18,0.32l-0.08,0.19
		l0.02,0.07l0.06,0.05l0.11,0.03l0.18,0.01c0.1,0,0.18-0.01,0.24-0.03l0.15-0.08c0.04-0.04,0.09-0.1,0.14-0.2
		c0.06-0.1,0.11-0.21,0.16-0.36c0.05-0.14,0.1-0.3,0.13-0.48c0.04-0.18,0.05-0.38,0.05-0.59c0-0.3-0.04-0.58-0.12-0.85
		c-0.08-0.26-0.2-0.49-0.36-0.68c-0.16-0.19-0.36-0.35-0.59-0.45c-0.23-0.11-0.5-0.16-0.79-0.16
		C20.98,69.77,20.76,69.81,20.58,69.89 M18.59,76.69l-0.1,0.01l-0.06,0.02l-0.05,0.04l-0.05,0.1l-0.04,0.16l-0.03,0.17l-0.01,0.14
		c0,0.09,0.01,0.19,0.04,0.28c0.02,0.09,0.07,0.19,0.13,0.28c0.06,0.1,0.15,0.2,0.26,0.3c0.11,0.11,0.25,0.22,0.43,0.34h-0.64
		l-0.07,0.02l-0.05,0.06l-0.03,0.11l-0.01,0.18l0.01,0.18l0.03,0.11l0.05,0.06l0.07,0.01h4.39l0.07-0.02l0.05-0.06l0.03-0.12
		l0.01-0.2l-0.01-0.2l-0.03-0.12l-0.05-0.06l-0.07-0.02h-2.89c-0.18-0.11-0.33-0.22-0.45-0.31c-0.12-0.09-0.22-0.18-0.3-0.27
		l-0.16-0.25l-0.05-0.24l0.02-0.19l0.04-0.16l0.04-0.13l0.02-0.09l-0.02-0.06l-0.06-0.04l-0.11-0.02l-0.18-0.01L18.59,76.69z
		 M20.25,83.71c-0.18-0.01-0.35-0.04-0.52-0.09c-0.16-0.06-0.31-0.13-0.43-0.24c-0.12-0.1-0.22-0.23-0.3-0.38
		c-0.07-0.15-0.11-0.33-0.11-0.53c0-0.39,0.12-0.68,0.36-0.88c0.24-0.2,0.57-0.29,1-0.28V83.71z M20.34,80.5
		c-0.29,0-0.56,0.04-0.81,0.11c-0.25,0.07-0.47,0.19-0.66,0.34c-0.19,0.16-0.34,0.36-0.45,0.6c-0.11,0.24-0.17,0.54-0.17,0.88
		c0,0.32,0.06,0.61,0.17,0.87c0.11,0.26,0.27,0.48,0.48,0.67c0.21,0.18,0.47,0.33,0.77,0.42c0.3,0.1,0.64,0.15,1.02,0.15
		c0.4,0,0.74-0.05,1.04-0.14c0.3-0.1,0.55-0.24,0.75-0.42c0.2-0.19,0.35-0.41,0.45-0.69c0.1-0.27,0.15-0.59,0.15-0.95
		c0-0.21-0.01-0.4-0.05-0.59c-0.03-0.18-0.07-0.35-0.11-0.49c-0.04-0.14-0.08-0.25-0.12-0.34l-0.09-0.16l-0.06-0.04l-0.07-0.02
		l-0.08-0.01l-0.11-0.01l-0.15,0.01l-0.1,0.02l-0.05,0.04l-0.02,0.06L22.16,81c0.03,0.08,0.07,0.17,0.11,0.29
		c0.04,0.12,0.08,0.26,0.11,0.42c0.03,0.16,0.05,0.35,0.05,0.56c0,0.27-0.04,0.49-0.11,0.67c-0.08,0.18-0.18,0.33-0.32,0.45
		c-0.14,0.11-0.31,0.2-0.5,0.25c-0.2,0.05-0.42,0.07-0.66,0.07v-2.89l-0.08-0.22c-0.05-0.06-0.14-0.1-0.27-0.1H20.34z M21.32,86.11
		c0.2,0.04,0.38,0.11,0.55,0.2c0.16,0.09,0.29,0.21,0.39,0.35c0.1,0.15,0.15,0.32,0.15,0.52c0,0.22-0.07,0.43-0.22,0.63
		c-0.14,0.2-0.35,0.41-0.62,0.63h-1.75c-0.16-0.13-0.29-0.25-0.4-0.36c-0.11-0.11-0.2-0.22-0.26-0.33c-0.07-0.1-0.12-0.21-0.15-0.31
		c-0.03-0.1-0.05-0.2-0.05-0.31c0-0.21,0.05-0.39,0.15-0.53s0.23-0.25,0.39-0.34c0.16-0.08,0.35-0.14,0.56-0.18
		c0.21-0.03,0.43-0.05,0.65-0.05C20.91,86.04,21.11,86.07,21.32,86.11 M19.71,85.31c-0.28,0.07-0.53,0.17-0.75,0.31
		c-0.21,0.14-0.38,0.33-0.51,0.55c-0.12,0.23-0.19,0.5-0.19,0.82c0,0.15,0.02,0.28,0.05,0.42c0.03,0.13,0.08,0.26,0.15,0.39
		s0.15,0.25,0.25,0.37c0.1,0.12,0.22,0.25,0.36,0.38h-0.59l-0.07,0.02l-0.05,0.06l-0.03,0.11l-0.01,0.17l0.01,0.17l0.03,0.11
		l0.05,0.06l0.07,0.01h6.14l0.07-0.02l0.05-0.06l0.03-0.12l0.01-0.2l-0.01-0.2l-0.03-0.12l-0.05-0.06l-0.07-0.02h-2.2
		c0.11-0.12,0.21-0.23,0.3-0.33c0.08-0.11,0.15-0.21,0.21-0.32c0.06-0.11,0.1-0.21,0.12-0.33c0.03-0.11,0.04-0.23,0.04-0.36
		c0-0.31-0.06-0.58-0.17-0.82c-0.11-0.24-0.28-0.44-0.49-0.6s-0.47-0.28-0.78-0.37s-0.65-0.12-1.04-0.12
		C20.29,85.21,19.99,85.24,19.71,85.31 M21.19,92.59c-0.14,0.06-0.25,0.15-0.35,0.25c-0.1,0.1-0.18,0.22-0.25,0.36
		c-0.07,0.14-0.13,0.27-0.18,0.41c-0.06,0.14-0.11,0.28-0.16,0.41c-0.05,0.13-0.11,0.25-0.18,0.36c-0.06,0.1-0.14,0.19-0.23,0.25
		c-0.09,0.07-0.19,0.1-0.32,0.1c-0.09,0-0.18-0.02-0.25-0.05l-0.2-0.15c-0.06-0.07-0.1-0.15-0.13-0.26
		c-0.03-0.1-0.05-0.23-0.05-0.36c0-0.15,0.02-0.29,0.05-0.41c0.04-0.12,0.07-0.22,0.11-0.31l0.11-0.21l0.05-0.13l-0.02-0.05
		l-0.06-0.04l-0.1-0.02l-0.14-0.01l-0.13,0.01l-0.09,0.02l-0.07,0.02l-0.07,0.07l-0.09,0.15c-0.03,0.07-0.07,0.15-0.09,0.24
		c-0.03,0.09-0.05,0.2-0.07,0.32c-0.02,0.12-0.03,0.23-0.03,0.35c0,0.27,0.04,0.5,0.11,0.7c0.07,0.2,0.17,0.37,0.28,0.5
		c0.12,0.13,0.26,0.23,0.42,0.3c0.16,0.07,0.32,0.1,0.5,0.1c0.19,0,0.36-0.03,0.5-0.1c0.14-0.06,0.26-0.15,0.36-0.25
		c0.1-0.1,0.19-0.22,0.26-0.35s0.13-0.27,0.19-0.4c0.06-0.14,0.11-0.27,0.16-0.4c0.05-0.13,0.11-0.25,0.17-0.35
		c0.07-0.1,0.14-0.19,0.22-0.25c0.08-0.06,0.19-0.1,0.31-0.1c0.12,0,0.22,0.02,0.31,0.07l0.22,0.19c0.06,0.08,0.1,0.18,0.13,0.29
		c0.03,0.11,0.04,0.23,0.04,0.37c0,0.18-0.02,0.34-0.07,0.48s-0.09,0.26-0.14,0.36c-0.05,0.1-0.1,0.19-0.14,0.26l-0.07,0.16
		l0.02,0.06l0.06,0.04l0.1,0.02l0.16,0.01c0.1,0,0.18-0.01,0.24-0.02l0.14-0.08l0.11-0.17c0.04-0.08,0.08-0.17,0.12-0.28
		c0.04-0.11,0.07-0.24,0.09-0.38c0.02-0.14,0.04-0.29,0.04-0.45c0-0.25-0.03-0.49-0.09-0.7c-0.06-0.21-0.15-0.39-0.27-0.55
		c-0.12-0.15-0.27-0.27-0.44-0.35c-0.18-0.08-0.38-0.12-0.6-0.12C21.49,92.49,21.33,92.53,21.19,92.59 M20.25,99.71
		c-0.18-0.01-0.35-0.04-0.52-0.09c-0.16-0.06-0.31-0.13-0.43-0.24c-0.12-0.1-0.22-0.23-0.3-0.38c-0.07-0.15-0.11-0.33-0.11-0.53
		c0-0.39,0.12-0.68,0.36-0.88c0.24-0.2,0.57-0.29,1-0.28V99.71z M20.34,96.5c-0.29,0-0.56,0.04-0.81,0.11
		c-0.25,0.07-0.47,0.19-0.66,0.34c-0.19,0.16-0.34,0.36-0.45,0.6c-0.11,0.24-0.17,0.54-0.17,0.88c0,0.32,0.06,0.61,0.17,0.87
		c0.11,0.26,0.27,0.48,0.48,0.67c0.21,0.18,0.47,0.33,0.77,0.42c0.3,0.1,0.64,0.15,1.02,0.15c0.4,0,0.74-0.05,1.04-0.14
		c0.3-0.1,0.55-0.24,0.75-0.42c0.2-0.19,0.35-0.41,0.45-0.69c0.1-0.27,0.15-0.59,0.15-0.95c0-0.21-0.01-0.4-0.05-0.59
		c-0.03-0.18-0.07-0.35-0.11-0.49c-0.04-0.14-0.08-0.25-0.12-0.34l-0.09-0.16l-0.06-0.04l-0.07-0.02l-0.08-0.01l-0.11-0.01
		l-0.15,0.01l-0.1,0.02l-0.05,0.04l-0.02,0.06L22.16,97c0.03,0.08,0.07,0.17,0.11,0.29c0.04,0.12,0.08,0.26,0.11,0.42
		c0.03,0.16,0.05,0.35,0.05,0.56c0,0.27-0.04,0.49-0.11,0.67c-0.08,0.18-0.18,0.33-0.32,0.45c-0.14,0.11-0.31,0.2-0.5,0.25
		c-0.2,0.05-0.42,0.07-0.66,0.07v-2.89l-0.08-0.22c-0.05-0.06-0.14-0.1-0.27-0.1H20.34z M20.1,101.73c-0.25,0-0.48,0.03-0.7,0.08
		c-0.22,0.05-0.42,0.14-0.58,0.25c-0.17,0.12-0.3,0.27-0.4,0.47c-0.1,0.19-0.15,0.43-0.15,0.71c0,0.12,0.02,0.23,0.05,0.35
		c0.03,0.11,0.08,0.23,0.15,0.36c0.07,0.12,0.16,0.25,0.27,0.38c0.11,0.13,0.25,0.27,0.4,0.42c-0.13,0.05-0.25,0.12-0.35,0.2
		c-0.1,0.08-0.2,0.17-0.27,0.28c-0.08,0.11-0.14,0.24-0.18,0.38c-0.04,0.15-0.06,0.31-0.06,0.49c0,0.24,0.07,0.47,0.19,0.71
		c0.13,0.23,0.33,0.47,0.61,0.72h-0.58l-0.07,0.02l-0.05,0.06l-0.03,0.11l-0.01,0.18l0.01,0.18l0.03,0.11l0.05,0.06l0.07,0.01h4.39
		l0.07-0.02l0.05-0.06l0.03-0.12l0.01-0.2l-0.01-0.2l-0.03-0.12l-0.05-0.06l-0.07-0.02h-3.07c-0.28-0.22-0.49-0.43-0.63-0.62
		c-0.14-0.19-0.21-0.38-0.21-0.56c0-0.15,0.03-0.28,0.09-0.39c0.06-0.11,0.14-0.2,0.25-0.27c0.11-0.07,0.24-0.13,0.4-0.16
		c0.15-0.04,0.32-0.05,0.51-0.05h2.67l0.07-0.02l0.05-0.06l0.03-0.13l0.01-0.19l-0.01-0.2l-0.03-0.12l-0.05-0.07l-0.07-0.02h-3.07
		c-0.28-0.22-0.49-0.43-0.63-0.62c-0.14-0.19-0.21-0.37-0.21-0.56c0-0.15,0.03-0.28,0.09-0.39c0.06-0.11,0.14-0.2,0.25-0.27
		c0.11-0.07,0.24-0.12,0.4-0.16c0.15-0.03,0.32-0.05,0.51-0.05h2.67l0.07-0.02l0.05-0.07l0.03-0.12l0.01-0.2l-0.01-0.2l-0.03-0.12
		l-0.05-0.06l-0.07-0.02H20.1z M21.81,110.74c0.22,0.2,0.39,0.39,0.49,0.57c0.11,0.18,0.16,0.38,0.16,0.59
		c0,0.26-0.07,0.46-0.2,0.61c-0.14,0.14-0.32,0.22-0.54,0.22c-0.13,0-0.25-0.02-0.35-0.08c-0.1-0.05-0.19-0.13-0.26-0.24
		c-0.07-0.11-0.13-0.24-0.17-0.4c-0.04-0.16-0.06-0.36-0.06-0.58v-0.69H21.81z M19.92,109.94c-0.27,0-0.51,0.03-0.72,0.09
		c-0.21,0.06-0.38,0.16-0.51,0.3c-0.14,0.14-0.24,0.32-0.32,0.54c-0.07,0.22-0.11,0.49-0.11,0.8c0,0.17,0.02,0.34,0.05,0.5
		c0.03,0.17,0.07,0.32,0.12,0.46c0.05,0.14,0.1,0.26,0.16,0.37c0.06,0.11,0.11,0.18,0.15,0.23l0.13,0.08l0.19,0.02l0.13-0.01
		l0.1-0.03l0.06-0.05l0.02-0.07L19.3,113c-0.05-0.08-0.1-0.18-0.16-0.3c-0.06-0.12-0.11-0.26-0.16-0.42
		c-0.05-0.16-0.07-0.34-0.07-0.54c0-0.18,0.02-0.34,0.07-0.47c0.04-0.13,0.11-0.23,0.2-0.31c0.09-0.08,0.19-0.14,0.33-0.17
		c0.13-0.04,0.28-0.05,0.45-0.05h0.34v0.61c0,0.34,0.03,0.65,0.09,0.92c0.06,0.27,0.15,0.5,0.27,0.69c0.12,0.19,0.27,0.33,0.45,0.43
		c0.18,0.1,0.4,0.15,0.64,0.15c0.21,0,0.4-0.04,0.57-0.11c0.17-0.07,0.31-0.17,0.42-0.31c0.11-0.13,0.2-0.29,0.26-0.48
		c0.06-0.19,0.09-0.4,0.09-0.63c0-0.26-0.06-0.51-0.17-0.75c-0.11-0.24-0.27-0.45-0.48-0.64h0.44l0.09-0.03l0.04-0.11l0.01-0.2
		l-0.01-0.2l-0.04-0.11l-0.09-0.04H19.92z M18.59,113.69l-0.1,0.01l-0.06,0.02l-0.05,0.04l-0.05,0.1l-0.04,0.16l-0.03,0.17
		l-0.01,0.14c0,0.09,0.01,0.19,0.04,0.28c0.02,0.09,0.07,0.19,0.13,0.28c0.06,0.1,0.15,0.2,0.26,0.3c0.11,0.11,0.25,0.22,0.43,0.34
		h-0.64l-0.07,0.02l-0.05,0.06l-0.03,0.11l-0.01,0.18l0.01,0.18l0.03,0.11l0.05,0.06l0.07,0.01h4.39l0.07-0.02l0.05-0.06l0.03-0.12
		l0.01-0.2l-0.01-0.2l-0.03-0.12l-0.05-0.06l-0.07-0.02h-2.89c-0.18-0.11-0.33-0.22-0.45-0.31c-0.12-0.09-0.22-0.18-0.3-0.27
		l-0.16-0.25l-0.05-0.24l0.02-0.19l0.04-0.16l0.04-0.13l0.02-0.1l-0.02-0.06l-0.06-0.04l-0.11-0.02l-0.18-0.01L18.59,113.69z
		 M16.88,117.85l-0.12,0.03l-0.06,0.06l-0.02,0.07v2.84l0.08,0.21c0.05,0.07,0.14,0.1,0.27,0.1h5.85l0.07-0.02l0.05-0.07l0.03-0.13
		l0.01-0.2l-0.01-0.21l-0.03-0.13l-0.05-0.07l-0.07-0.02h-2.63v-2.19l-0.02-0.07l-0.06-0.06l-0.11-0.03l-0.16-0.01l-0.17,0.01
		l-0.1,0.03l-0.06,0.06l-0.02,0.07v2.19h-2.15v-2.32l-0.02-0.07l-0.06-0.06l-0.11-0.03l-0.16-0.01L16.88,117.85z"/>
</g>
<rect x="126.63" y="185.09" class="st2" width="4.94" height="4.94"/>
<g>
	<defs>
		<rect id="SVGID_3_" width="360" height="202"/>
	</defs>
	<clipPath id="SVGID_4_">
		<use xlink:href="#SVGID_3_"  style="overflow:visible;"/>
	</clipPath>
	<path class="st5" d="M178.56,186.07l0.03-0.13l-0.04-0.08l-0.12-0.04l-0.2-0.01c-0.09,0-0.16,0-0.21,0.01l-0.11,0.04l-0.06,0.11
		l-1.09,3.19h-0.01l-1.13-3.17l-0.04-0.09l-0.06-0.05l-0.12-0.02l-0.21-0.01l-0.21,0.01l-0.11,0.04l-0.04,0.08l0.04,0.14l1.41,3.78
		l0.05,0.08l0.07,0.06l-0.54,1.38l-0.02,0.1l0.04,0.07l0.11,0.04l0.18,0.01c0.15,0,0.26-0.01,0.33-0.04l0.13-0.11l0.53-1.45
		L178.56,186.07z M173.59,188.93c-0.18,0.2-0.35,0.35-0.51,0.44c-0.16,0.1-0.34,0.15-0.53,0.15c-0.23,0-0.42-0.06-0.55-0.18
		c-0.13-0.12-0.19-0.28-0.19-0.49c0-0.12,0.02-0.23,0.07-0.32c0.04-0.09,0.12-0.17,0.21-0.24c0.1-0.07,0.22-0.12,0.37-0.15
		c0.15-0.03,0.32-0.05,0.52-0.05h0.62V188.93z M174.31,187.23c0-0.25-0.03-0.46-0.08-0.65c-0.05-0.18-0.14-0.34-0.27-0.46
		c-0.12-0.12-0.28-0.22-0.48-0.28c-0.2-0.06-0.44-0.1-0.72-0.1c-0.15,0-0.3,0.01-0.45,0.04c-0.15,0.03-0.29,0.06-0.41,0.11
		c-0.13,0.04-0.24,0.09-0.33,0.14c-0.1,0.05-0.17,0.1-0.2,0.13l-0.08,0.12l-0.01,0.17l0.01,0.12l0.03,0.09l0.05,0.05l0.06,0.02
		l0.16-0.06c0.07-0.04,0.16-0.09,0.27-0.14c0.11-0.05,0.23-0.1,0.37-0.14c0.14-0.04,0.3-0.06,0.48-0.06c0.17,0,0.31,0.02,0.42,0.06
		c0.11,0.04,0.21,0.1,0.28,0.18c0.07,0.08,0.12,0.18,0.16,0.29c0.03,0.12,0.05,0.25,0.05,0.4v0.31h-0.55
		c-0.31,0-0.58,0.03-0.83,0.08c-0.25,0.05-0.46,0.14-0.62,0.24c-0.17,0.11-0.3,0.24-0.39,0.41c-0.09,0.16-0.14,0.36-0.14,0.58
		c0,0.19,0.03,0.36,0.1,0.51c0.07,0.15,0.16,0.28,0.28,0.38c0.12,0.1,0.26,0.18,0.43,0.23c0.17,0.06,0.36,0.08,0.56,0.08
		c0.24,0,0.46-0.05,0.67-0.15c0.21-0.1,0.4-0.25,0.58-0.43v0.4l0.03,0.08l0.1,0.04l0.18,0.01l0.18-0.01l0.1-0.04l0.03-0.08V187.23z
		 M170.06,184.02l-0.02-0.06l-0.06-0.04l-0.11-0.03l-0.18-0.01l-0.18,0.01l-0.11,0.03l-0.06,0.04l-0.01,0.06v5.87l0.01,0.06
		l0.06,0.04l0.11,0.03l0.18,0.01l0.18-0.01l0.11-0.03l0.06-0.04l0.02-0.06V184.02z M167.04,186.51c-0.05,0.14-0.13,0.27-0.23,0.37
		c-0.1,0.1-0.23,0.18-0.38,0.24c-0.15,0.06-0.34,0.09-0.57,0.09h-0.68v-2.28h0.7c0.13,0,0.26,0.01,0.4,0.03
		c0.14,0.02,0.27,0.07,0.4,0.14c0.13,0.08,0.23,0.19,0.32,0.35c0.09,0.15,0.13,0.35,0.13,0.58
		C167.12,186.21,167.09,186.37,167.04,186.51 M167.82,185.39c-0.06-0.18-0.15-0.33-0.26-0.47c-0.11-0.13-0.25-0.25-0.41-0.34
		c-0.16-0.09-0.32-0.15-0.47-0.19c-0.15-0.03-0.29-0.06-0.4-0.07c-0.11-0.01-0.23-0.01-0.35-0.01h-1.22l-0.21,0.07
		c-0.06,0.05-0.09,0.13-0.09,0.25v5.25l0.02,0.06l0.06,0.04l0.12,0.03l0.18,0.01l0.18-0.01l0.11-0.03l0.06-0.04l0.02-0.06v-2.05
		h0.65c0.35,0,0.65-0.04,0.91-0.13c0.25-0.09,0.47-0.21,0.64-0.37c0.17-0.16,0.31-0.36,0.4-0.59c0.09-0.23,0.14-0.48,0.14-0.77
		C167.91,185.76,167.88,185.57,167.82,185.39 M160.01,186.27c-0.05,0.12-0.12,0.22-0.21,0.3c-0.1,0.09-0.22,0.15-0.36,0.2
		c-0.15,0.05-0.32,0.07-0.52,0.07h-0.74v-1.92h0.64c0.15,0,0.27,0,0.36,0.01c0.09,0.01,0.18,0.02,0.25,0.04
		c0.24,0.07,0.4,0.18,0.5,0.33c0.1,0.15,0.15,0.34,0.15,0.56C160.08,186.03,160.06,186.16,160.01,186.27 M161.2,189.79
		c-0.01-0.04-0.04-0.12-0.08-0.22l-0.51-1.25c-0.06-0.14-0.12-0.27-0.18-0.39c-0.06-0.11-0.12-0.21-0.19-0.3l-0.21-0.23
		c-0.08-0.06-0.16-0.12-0.26-0.16c0.17-0.06,0.32-0.13,0.45-0.22c0.13-0.08,0.25-0.18,0.35-0.3c0.1-0.12,0.17-0.25,0.22-0.4
		c0.05-0.15,0.08-0.32,0.08-0.51c0-0.2-0.03-0.38-0.09-0.54s-0.14-0.31-0.26-0.43c-0.11-0.13-0.26-0.23-0.42-0.31
		c-0.17-0.08-0.36-0.14-0.58-0.18c-0.08-0.01-0.16-0.02-0.26-0.02c-0.1-0.01-0.21-0.01-0.36-0.01h-1.21l-0.19,0.07
		c-0.06,0.05-0.09,0.12-0.09,0.24v5.26l0.02,0.06l0.06,0.04l0.12,0.03l0.18,0.01l0.18-0.01l0.11-0.03l0.06-0.04l0.02-0.06v-2.42
		h0.51c0.17,0,0.32,0.02,0.44,0.08c0.12,0.05,0.23,0.12,0.32,0.21c0.09,0.09,0.17,0.2,0.24,0.33c0.07,0.13,0.13,0.27,0.19,0.42
		l0.52,1.34l0.04,0.09l0.07,0.05l0.12,0.03l0.19,0.01l0.21-0.01l0.12-0.03l0.06-0.04l0.01-0.06L161.2,189.79z M155.3,188.02
		c-0.06,0.28-0.16,0.52-0.29,0.73c-0.14,0.21-0.32,0.38-0.54,0.5c-0.23,0.12-0.5,0.18-0.83,0.18c-0.33,0-0.61-0.06-0.83-0.17
		c-0.22-0.11-0.4-0.27-0.53-0.47c-0.13-0.2-0.23-0.45-0.28-0.73c-0.06-0.28-0.08-0.59-0.08-0.92c0-0.3,0.03-0.59,0.09-0.86
		c0.06-0.27,0.16-0.51,0.3-0.72c0.14-0.2,0.32-0.37,0.54-0.49c0.22-0.12,0.5-0.18,0.82-0.18c0.33,0,0.6,0.06,0.82,0.17
		c0.22,0.11,0.4,0.27,0.53,0.48c0.13,0.2,0.23,0.44,0.29,0.72c0.06,0.28,0.09,0.58,0.09,0.9
		C155.39,187.45,155.36,187.74,155.3,188.02 M156.04,185.87c-0.1-0.36-0.25-0.65-0.46-0.9c-0.21-0.24-0.46-0.43-0.78-0.55
		c-0.31-0.13-0.68-0.19-1.09-0.19c-0.43,0-0.81,0.07-1.14,0.21s-0.6,0.34-0.81,0.59c-0.22,0.26-0.38,0.57-0.49,0.93
		c-0.11,0.37-0.16,0.77-0.16,1.22c0,0.47,0.05,0.88,0.15,1.24c0.1,0.36,0.25,0.66,0.46,0.91c0.2,0.24,0.46,0.43,0.77,0.56
		c0.31,0.13,0.68,0.19,1.11,0.19c0.43,0,0.81-0.07,1.14-0.21c0.32-0.14,0.6-0.34,0.81-0.6c0.22-0.26,0.38-0.57,0.49-0.94
		c0.11-0.37,0.16-0.78,0.16-1.24C156.19,186.63,156.14,186.22,156.04,185.87 M150.72,184.44l-0.02-0.06l-0.06-0.05l-0.12-0.03
		l-0.18-0.01l-0.19,0.01l-0.12,0.03l-0.06,0.05l-0.02,0.06v3.09c0,0.23,0,0.47,0,0.72c0,0.25,0.01,0.49,0.01,0.72h0
		c-0.07-0.14-0.14-0.27-0.21-0.41c-0.07-0.14-0.14-0.28-0.21-0.42c-0.07-0.14-0.14-0.28-0.22-0.43c-0.08-0.14-0.16-0.29-0.24-0.45
		l-1.33-2.5c-0.05-0.09-0.09-0.17-0.14-0.23l-0.14-0.14l-0.16-0.07l-0.22-0.02h-0.37l-0.22,0.07c-0.07,0.05-0.1,0.13-0.1,0.25v5.25
		l0.02,0.06l0.06,0.04l0.11,0.03l0.18,0.01l0.18-0.01l0.12-0.03l0.06-0.04l0.02-0.06v-3.43c0-0.22,0-0.43-0.01-0.65
		c0-0.22-0.01-0.43-0.01-0.65h0.01c0.08,0.17,0.16,0.35,0.26,0.53c0.09,0.18,0.18,0.36,0.27,0.53l1.74,3.23
		c0.06,0.11,0.12,0.21,0.17,0.28l0.16,0.17l0.17,0.09l0.21,0.02h0.25l0.12-0.02l0.11-0.06l0.08-0.1l0.03-0.15V184.44z M144.3,188.02
		c-0.06,0.28-0.16,0.52-0.29,0.73c-0.14,0.21-0.32,0.38-0.55,0.5c-0.22,0.12-0.5,0.18-0.83,0.18c-0.33,0-0.61-0.06-0.83-0.17
		c-0.22-0.11-0.4-0.27-0.53-0.47c-0.13-0.2-0.22-0.45-0.28-0.73c-0.06-0.28-0.08-0.59-0.08-0.92c0-0.3,0.03-0.59,0.09-0.86
		c0.06-0.27,0.16-0.51,0.3-0.72c0.14-0.2,0.32-0.37,0.54-0.49c0.22-0.12,0.5-0.18,0.82-0.18s0.6,0.06,0.82,0.17
		c0.22,0.11,0.4,0.27,0.53,0.48c0.13,0.2,0.23,0.44,0.29,0.72c0.06,0.28,0.09,0.58,0.09,0.9
		C144.39,187.45,144.36,187.74,144.3,188.02 M145.03,185.87c-0.1-0.36-0.26-0.65-0.46-0.9c-0.21-0.24-0.46-0.43-0.77-0.55
		c-0.31-0.13-0.68-0.19-1.1-0.19c-0.43,0-0.81,0.07-1.14,0.21c-0.33,0.14-0.6,0.34-0.81,0.59c-0.22,0.26-0.38,0.57-0.49,0.93
		c-0.11,0.37-0.16,0.77-0.16,1.22c0,0.47,0.05,0.88,0.15,1.24c0.1,0.36,0.25,0.66,0.46,0.91c0.2,0.24,0.46,0.43,0.77,0.56
		c0.31,0.13,0.68,0.19,1.11,0.19c0.43,0,0.81-0.07,1.14-0.21c0.32-0.14,0.6-0.34,0.81-0.6c0.21-0.26,0.38-0.57,0.49-0.94
		c0.11-0.37,0.16-0.78,0.16-1.24C145.19,186.63,145.14,186.22,145.03,185.87 M138.52,184.43l-0.02-0.06l-0.06-0.04l-0.12-0.03
		l-0.18-0.01l-0.18,0.01l-0.11,0.03l-0.06,0.04l-0.02,0.06v2.28h-2.59v-2.28l-0.02-0.06l-0.06-0.04l-0.12-0.03l-0.18-0.01
		l-0.18,0.01l-0.12,0.03l-0.06,0.04l-0.02,0.06v5.46l0.02,0.06l0.06,0.04l0.12,0.03l0.18,0.01l0.18-0.01l0.12-0.03l0.06-0.04
		l0.02-0.06v-2.52h2.59v2.52l0.02,0.06l0.06,0.04l0.11,0.03l0.18,0.01l0.18-0.01l0.12-0.03l0.06-0.04l0.02-0.06V184.43z"/>
</g>
<rect x="189.01" y="185.09" class="st3" width="4.94" height="4.94"/>
<g>
	<defs>
		<rect id="SVGID_5_" width="360" height="202"/>
	</defs>
	<clipPath id="SVGID_6_">
		<use xlink:href="#SVGID_5_"  style="overflow:visible;"/>
	</clipPath>
	<path class="st6" d="M238.04,186.03l-0.01-0.09l-0.01-0.05l-0.04-0.04l-0.09-0.04l-0.14-0.04l-0.15-0.02l-0.13-0.01l-0.25,0.03
		l-0.25,0.12c-0.09,0.06-0.18,0.14-0.27,0.23c-0.1,0.1-0.2,0.23-0.3,0.39v-0.58l-0.02-0.06l-0.05-0.04l-0.1-0.03l-0.16-0.01
		l-0.16,0.01l-0.1,0.03l-0.05,0.04l-0.01,0.06v3.96l0.02,0.06l0.06,0.04l0.11,0.03l0.18,0.01l0.18-0.01l0.11-0.03l0.06-0.04
		l0.02-0.06v-2.6c0.1-0.16,0.2-0.3,0.28-0.41c0.08-0.11,0.17-0.2,0.24-0.27l0.22-0.14l0.21-0.04l0.17,0.02l0.14,0.04l0.11,0.04
		l0.09,0.02l0.05-0.02l0.03-0.06l0.02-0.1l0-0.16L238.04,186.03z M233.58,188.55c-0.05,0.19-0.12,0.35-0.22,0.49
		c-0.1,0.14-0.23,0.24-0.39,0.32c-0.16,0.08-0.34,0.11-0.55,0.11c-0.23,0-0.43-0.04-0.59-0.12c-0.16-0.08-0.28-0.2-0.37-0.34
		c-0.09-0.14-0.16-0.31-0.2-0.5c-0.04-0.19-0.06-0.39-0.06-0.61c0-0.23,0.02-0.43,0.07-0.62c0.05-0.19,0.12-0.36,0.22-0.49
		c0.1-0.14,0.23-0.25,0.38-0.32s0.34-0.11,0.56-0.11c0.23,0,0.43,0.04,0.59,0.12c0.16,0.08,0.28,0.2,0.37,0.34
		c0.09,0.14,0.16,0.31,0.2,0.5c0.04,0.19,0.06,0.39,0.06,0.61C233.65,188.15,233.63,188.35,233.58,188.55 M234.28,186.98
		c-0.08-0.26-0.2-0.49-0.36-0.67c-0.16-0.18-0.36-0.33-0.6-0.42c-0.24-0.1-0.52-0.15-0.85-0.15c-0.34,0-0.63,0.05-0.88,0.16
		c-0.25,0.11-0.46,0.26-0.63,0.46c-0.17,0.2-0.3,0.43-0.38,0.7c-0.08,0.27-0.12,0.57-0.12,0.89c0,0.33,0.04,0.63,0.12,0.9
		c0.08,0.26,0.2,0.49,0.36,0.67c0.16,0.18,0.36,0.33,0.6,0.42c0.24,0.1,0.52,0.15,0.85,0.15c0.33,0,0.63-0.06,0.88-0.17
		c0.25-0.11,0.47-0.26,0.63-0.46c0.17-0.2,0.29-0.43,0.38-0.7c0.09-0.27,0.13-0.57,0.13-0.89
		C234.4,187.54,234.36,187.24,234.28,186.98 M229.77,189.47l-0.02-0.08l-0.03-0.04l-0.04-0.01l-0.08,0.02l-0.11,0.04l-0.14,0.04
		l-0.18,0.02c-0.21,0-0.35-0.07-0.43-0.21c-0.08-0.14-0.12-0.35-0.12-0.62v-2.21h1.01l0.11-0.07c0.03-0.05,0.04-0.12,0.04-0.23
		l-0.01-0.14l-0.03-0.1l-0.05-0.05l-0.06-0.01h-1.01v-0.94l-0.02-0.06l-0.06-0.05l-0.11-0.03l-0.18-0.01l-0.18,0.01l-0.11,0.03
		l-0.06,0.05l-0.02,0.06v0.94h-0.55l-0.06,0.01l-0.05,0.05l-0.03,0.1l-0.01,0.14c0,0.11,0.01,0.18,0.04,0.23l0.11,0.07h0.55v2.31
		c0,0.23,0.02,0.43,0.06,0.6c0.04,0.17,0.11,0.31,0.21,0.42c0.09,0.11,0.21,0.19,0.36,0.25c0.15,0.05,0.32,0.08,0.53,0.08l0.2-0.01
		l0.19-0.03l0.16-0.05l0.11-0.07l0.05-0.11l0.02-0.2L229.77,189.47z M226.43,184.26c-0.06-0.06-0.18-0.09-0.35-0.09
		c-0.17,0-0.29,0.03-0.36,0.09c-0.06,0.06-0.1,0.18-0.1,0.35c0,0.17,0.03,0.28,0.09,0.34s0.18,0.09,0.35,0.09
		c0.17,0,0.29-0.03,0.36-0.09c0.06-0.06,0.1-0.18,0.1-0.35C226.53,184.43,226.5,184.32,226.43,184.26 M226.45,185.93l-0.02-0.06
		l-0.06-0.04l-0.11-0.03l-0.18-0.01l-0.18,0.01l-0.11,0.03l-0.06,0.04l-0.02,0.06v3.96l0.02,0.06l0.06,0.04l0.11,0.03l0.18,0.01
		l0.18-0.01l0.11-0.03l0.06-0.04l0.02-0.06V185.93z M224.77,189.47l-0.02-0.08l-0.03-0.04l-0.04-0.01l-0.08,0.02l-0.11,0.04
		l-0.14,0.04l-0.18,0.02c-0.21,0-0.35-0.07-0.43-0.21c-0.08-0.14-0.12-0.35-0.12-0.62v-2.21h1.01l0.11-0.07
		c0.03-0.05,0.04-0.12,0.04-0.23l-0.01-0.14l-0.03-0.1l-0.05-0.05l-0.06-0.01h-1.01v-0.94l-0.02-0.06l-0.06-0.05l-0.11-0.03
		l-0.18-0.01l-0.18,0.01l-0.11,0.03l-0.06,0.05l-0.02,0.06v0.94h-0.55l-0.06,0.01l-0.05,0.05l-0.03,0.1l-0.01,0.14
		c0,0.11,0.01,0.18,0.04,0.23l0.11,0.07h0.55v2.31c0,0.23,0.02,0.43,0.06,0.6c0.04,0.17,0.11,0.31,0.2,0.42
		c0.09,0.11,0.21,0.19,0.36,0.25c0.15,0.05,0.32,0.08,0.53,0.08l0.2-0.01l0.19-0.03l0.16-0.05l0.1-0.07l0.05-0.11l0.02-0.2
		L224.77,189.47z M218.21,187.53c0.01-0.16,0.03-0.32,0.08-0.46c0.05-0.15,0.12-0.28,0.21-0.39c0.09-0.11,0.21-0.2,0.34-0.27
		c0.14-0.07,0.29-0.1,0.47-0.1c0.35,0,0.62,0.11,0.79,0.33c0.18,0.22,0.26,0.52,0.25,0.9H218.21z M221.09,187.61
		c0-0.26-0.03-0.5-0.1-0.73c-0.07-0.23-0.17-0.42-0.31-0.59c-0.14-0.17-0.32-0.3-0.54-0.4c-0.22-0.1-0.48-0.15-0.79-0.15
		c-0.29,0-0.55,0.05-0.79,0.15c-0.23,0.1-0.43,0.25-0.6,0.43c-0.17,0.19-0.29,0.42-0.38,0.69c-0.09,0.27-0.13,0.58-0.13,0.92
		c0,0.36,0.04,0.67,0.13,0.94c0.08,0.27,0.21,0.49,0.38,0.67c0.17,0.18,0.37,0.31,0.62,0.4c0.24,0.09,0.53,0.14,0.85,0.14
		c0.19,0,0.36-0.01,0.53-0.04c0.17-0.03,0.31-0.06,0.44-0.09c0.13-0.04,0.23-0.07,0.31-0.11l0.14-0.08l0.04-0.05l0.02-0.06
		l0.01-0.07l0.01-0.1l-0.01-0.13l-0.02-0.09l-0.04-0.05l-0.06-0.01l-0.16,0.05c-0.07,0.03-0.16,0.07-0.27,0.1
		c-0.11,0.04-0.23,0.07-0.38,0.1c-0.15,0.03-0.32,0.05-0.5,0.05c-0.24,0-0.44-0.03-0.61-0.1c-0.16-0.07-0.3-0.16-0.4-0.29
		s-0.18-0.28-0.22-0.45c-0.04-0.18-0.07-0.37-0.07-0.59h2.6l0.2-0.07c0.06-0.05,0.09-0.13,0.09-0.24V187.61z M216.55,188.48
		c-0.04,0.18-0.1,0.35-0.18,0.49c-0.08,0.15-0.19,0.26-0.32,0.35c-0.13,0.09-0.29,0.13-0.47,0.13c-0.2,0-0.39-0.07-0.57-0.19
		c-0.18-0.13-0.37-0.32-0.57-0.56v-1.57c0.11-0.14,0.22-0.26,0.33-0.36c0.1-0.1,0.2-0.18,0.3-0.24c0.09-0.06,0.19-0.1,0.28-0.13
		c0.09-0.03,0.18-0.04,0.28-0.04c0.19,0,0.35,0.04,0.47,0.13c0.13,0.09,0.23,0.2,0.3,0.35c0.08,0.15,0.13,0.31,0.16,0.5
		c0.03,0.19,0.05,0.39,0.05,0.59C216.6,188.12,216.58,188.3,216.55,188.48 M217.27,187.04c-0.06-0.26-0.15-0.48-0.28-0.67
		c-0.13-0.19-0.29-0.35-0.49-0.46c-0.2-0.11-0.45-0.17-0.73-0.17c-0.13,0-0.26,0.02-0.38,0.05c-0.12,0.03-0.23,0.08-0.35,0.14
		s-0.23,0.13-0.34,0.23c-0.11,0.09-0.23,0.2-0.35,0.32v-0.53l-0.02-0.06l-0.05-0.04l-0.1-0.02l-0.15-0.01l-0.15,0.01l-0.1,0.02
		l-0.05,0.04l-0.01,0.06v5.52l0.02,0.06l0.06,0.04l0.11,0.03l0.18,0.01l0.18-0.01l0.11-0.03l0.06-0.04l0.02-0.06v-1.98
		c0.11,0.1,0.21,0.19,0.3,0.27c0.09,0.08,0.19,0.14,0.28,0.19c0.1,0.05,0.19,0.09,0.29,0.11c0.1,0.02,0.21,0.04,0.33,0.04
		c0.28,0,0.52-0.05,0.73-0.16c0.21-0.1,0.39-0.25,0.54-0.44c0.14-0.19,0.26-0.43,0.33-0.7c0.08-0.28,0.11-0.59,0.11-0.93
		C217.35,187.56,217.33,187.29,217.27,187.04 M212.58,187.39c0-0.22-0.02-0.43-0.07-0.64c-0.05-0.2-0.12-0.38-0.23-0.52
		c-0.11-0.15-0.25-0.27-0.42-0.36c-0.17-0.09-0.39-0.14-0.64-0.14c-0.11,0-0.21,0.01-0.31,0.04c-0.1,0.03-0.21,0.07-0.32,0.13
		c-0.11,0.06-0.22,0.14-0.34,0.24c-0.12,0.1-0.24,0.22-0.38,0.37c-0.05-0.12-0.11-0.22-0.17-0.32c-0.07-0.1-0.16-0.18-0.26-0.25
		c-0.1-0.07-0.21-0.12-0.35-0.16c-0.13-0.04-0.28-0.06-0.44-0.06c-0.21,0-0.43,0.06-0.63,0.17c-0.21,0.12-0.43,0.3-0.65,0.55v-0.52
		l-0.02-0.06l-0.05-0.04l-0.1-0.03l-0.16-0.01l-0.16,0.01l-0.1,0.03l-0.05,0.04l-0.01,0.06v3.96l0.02,0.06l0.06,0.04l0.11,0.03
		l0.18,0.01l0.18-0.01l0.11-0.03l0.06-0.04l0.02-0.06v-2.76c0.2-0.25,0.38-0.44,0.55-0.57c0.17-0.13,0.34-0.19,0.51-0.19
		c0.14,0,0.25,0.03,0.35,0.08c0.1,0.05,0.18,0.13,0.24,0.23c0.07,0.1,0.11,0.22,0.15,0.35c0.03,0.14,0.05,0.29,0.05,0.46v2.4
		l0.01,0.06l0.06,0.04l0.11,0.03l0.17,0.01l0.18-0.01l0.11-0.03l0.06-0.04l0.02-0.06v-2.76c0.2-0.25,0.39-0.44,0.56-0.57
		c0.17-0.13,0.34-0.19,0.5-0.19c0.13,0,0.25,0.03,0.35,0.08c0.1,0.05,0.18,0.13,0.25,0.23c0.06,0.1,0.11,0.22,0.14,0.35
		c0.03,0.14,0.04,0.29,0.04,0.46v2.4l0.02,0.06l0.06,0.04l0.11,0.03l0.18,0.01l0.18-0.01l0.11-0.03l0.06-0.04l0.02-0.06V187.39z
		 M204.57,188.55c-0.05,0.19-0.12,0.35-0.22,0.49c-0.1,0.14-0.23,0.24-0.39,0.32c-0.16,0.08-0.34,0.11-0.55,0.11
		c-0.23,0-0.43-0.04-0.59-0.12c-0.16-0.08-0.28-0.2-0.37-0.34c-0.09-0.14-0.16-0.31-0.2-0.5c-0.04-0.19-0.06-0.39-0.06-0.61
		c0-0.23,0.02-0.43,0.07-0.62c0.05-0.19,0.12-0.36,0.22-0.49c0.1-0.14,0.23-0.25,0.38-0.32s0.34-0.11,0.56-0.11
		c0.23,0,0.43,0.04,0.59,0.12c0.16,0.08,0.28,0.2,0.37,0.34c0.09,0.14,0.16,0.31,0.2,0.5c0.04,0.19,0.06,0.39,0.06,0.61
		C204.64,188.15,204.62,188.35,204.57,188.55 M205.27,186.98c-0.08-0.26-0.2-0.49-0.36-0.67c-0.16-0.18-0.36-0.33-0.61-0.42
		c-0.24-0.1-0.52-0.15-0.85-0.15c-0.34,0-0.63,0.05-0.88,0.16c-0.25,0.11-0.46,0.26-0.63,0.46c-0.17,0.2-0.29,0.43-0.38,0.7
		c-0.08,0.27-0.12,0.57-0.12,0.89c0,0.33,0.04,0.63,0.12,0.9c0.08,0.26,0.2,0.49,0.36,0.67c0.16,0.18,0.36,0.33,0.6,0.42
		c0.24,0.1,0.52,0.15,0.85,0.15c0.33,0,0.63-0.06,0.88-0.17c0.25-0.11,0.46-0.26,0.63-0.46c0.17-0.2,0.29-0.43,0.38-0.7
		c0.08-0.27,0.13-0.57,0.13-0.89C205.4,187.54,205.36,187.24,205.27,186.98 M200.59,189.03l-0.02-0.1l-0.04-0.05l-0.05-0.01
		l-0.18,0.08c-0.08,0.05-0.18,0.12-0.29,0.19c-0.12,0.07-0.26,0.13-0.43,0.19s-0.37,0.08-0.59,0.08c-0.27,0-0.51-0.05-0.72-0.14
		s-0.39-0.24-0.54-0.42s-0.26-0.42-0.34-0.69c-0.08-0.28-0.12-0.6-0.12-0.96c0-0.36,0.04-0.69,0.12-0.97
		c0.08-0.28,0.2-0.52,0.34-0.72c0.15-0.2,0.33-0.35,0.53-0.45c0.21-0.1,0.44-0.15,0.69-0.15c0.23,0,0.43,0.03,0.6,0.08
		c0.17,0.06,0.31,0.12,0.42,0.19c0.12,0.07,0.21,0.13,0.29,0.19l0.17,0.09l0.06-0.02l0.04-0.06l0.03-0.1l0.01-0.15l-0.01-0.14
		l-0.02-0.1l-0.03-0.07l-0.08-0.09c-0.04-0.04-0.11-0.09-0.21-0.15c-0.1-0.06-0.22-0.12-0.35-0.16c-0.13-0.05-0.27-0.09-0.43-0.12
		c-0.16-0.03-0.32-0.05-0.48-0.05c-0.37,0-0.71,0.07-1.02,0.2c-0.31,0.13-0.57,0.33-0.79,0.59c-0.22,0.26-0.39,0.57-0.51,0.94
		c-0.12,0.37-0.18,0.79-0.18,1.26c0,0.46,0.06,0.87,0.17,1.22c0.11,0.35,0.27,0.65,0.48,0.89c0.21,0.24,0.46,0.42,0.76,0.55
		c0.3,0.12,0.63,0.18,1,0.18c0.21,0,0.41-0.02,0.59-0.06c0.18-0.04,0.34-0.09,0.48-0.15c0.14-0.06,0.26-0.12,0.35-0.18
		c0.09-0.06,0.15-0.1,0.18-0.13l0.06-0.07l0.03-0.07l0.01-0.09l0.01-0.12L200.59,189.03z"/>
</g>
</svg>
